<?xml version="1.0" encoding="UTF-8" standalone="no"?>
<svg
   xmlns:dc="http://purl.org/dc/elements/1.1/"
   xmlns:cc="http://creativecommons.org/ns#"
   xmlns:rdf="http://www.w3.org/1999/02/22-rdf-syntax-ns#"
   xmlns:svg="http://www.w3.org/2000/svg"
   xmlns="http://www.w3.org/2000/svg"
   xmlns:sodipodi="http://sodipodi.sourceforge.net/DTD/sodipodi-0.dtd"
   xmlns:inkscape="http://www.inkscape.org/namespaces/inkscape"
   version="1.1"
   id="Capa_1"
   x="0px"
   y="0px"
   viewBox="0 0 128 128"
   xml:space="preserve"
   width="128"
   height="128"
   class=""
   sodipodi:docname="album-default-cover.svg"
   inkscape:version="0.92.3 (2405546, 2018-03-11)"><metadata
   id="metadata15"><rdf:RDF><cc:Work
       rdf:about=""><dc:format>image/svg+xml</dc:format><dc:type
         rdf:resource="http://purl.org/dc/dcmitype/StillImage" /><dc:title /></cc:Work></rdf:RDF></metadata><defs
   id="defs13" /><sodipodi:namedview
   pagecolor="#ffffff"
   bordercolor="#666666"
   borderopacity="1"
   objecttolerance="10"
   gridtolerance="10"
   guidetolerance="10"
   inkscape:pageopacity="0"
   inkscape:pageshadow="2"
   inkscape:window-width="1366"
   inkscape:window-height="705"
   id="namedview11"
   showgrid="false"
   inkscape:zoom="8.1562499"
   inkscape:cx="46.024032"
   inkscape:cy="57.974636"
   inkscape:window-x="0"
   inkscape:window-y="30"
   inkscape:window-maximized="1"
   inkscape:current-layer="Capa_1" /> <rect
   style="opacity:1;fill:#ffffff;fill-opacity:1;fill-rule:evenodd;stroke:none;stroke-width:0.7497772;stroke-miterlimit:4;stroke-dasharray:none;stroke-opacity:1"
   id="rect817"
   width="128"
   height="128"
   x="0"
   y="0" /><path
   style="fill:#fe2851;stroke-width:0.1171875;fill-opacity:1"
   inkscape:connector-curvature="0"
   id="path2"
   data-old_color="#fe2851"
   class="active-path"
   data-original="#000000"
   d="M 92.125001,49 H 35.875 C 34.84,49 34,49.84 34,50.875 v 41.25 C 34,93.16 34.84,94 35.875,94 h 56.250001 c 1.035,0 1.875,-0.84 1.875,-1.875 v -41.25 c 0,-1.035 -0.84,-1.875 -1.875,-1.875 z"
   sodipodi:nodetypes="sssssssss" /><path
   inkscape:connector-curvature="0"
   d="m 72.889654,57.329311 -13.413885,3.459178 c -1.007496,0.270418 -1.818586,1.343018 -1.818586,2.38295 v 16.5046 c -1.138416,-0.585247 -2.454108,-0.727535 -3.691729,-0.399276 -2.455091,0.637026 -3.993613,2.695113 -3.468042,4.595308 0.52739,1.900186 2.94429,2.961891 5.39938,2.324877 1.956798,-0.508172 3.308007,-1.943753 3.5226,-3.459181 l 0.05638,-15.597166 12.730098,-3.402917 v 12.306762 c -1.139401,-0.584484 -2.4558,-0.725483 -3.693546,-0.395646 -2.45509,0.635212 -3.993614,2.693295 -3.466222,4.593483 0.525568,1.900198 2.944288,2.961907 5.397557,2.324874 1.958619,-0.508162 3.309828,-1.943746 3.524421,-3.459178 l 0.05456,-20.304978 c 0,-0.780403 -0.481926,-1.362982 -1.134801,-1.47369 z"
   id="path23-3"
   style="opacity:0.203;fill:#000000;fill-opacity:1;fill-rule:evenodd;stroke:none;stroke-width:1.81673634" /><path
   style="fill:#fe2851;stroke-width:0.1171875;fill-opacity:1"
   inkscape:connector-curvature="0"
   id="path4"
   data-old_color="#fe2851"
   class="active-path"
   data-original="#000000"
   d="m 86.500001,43.375 c 0,-1.035 -0.84,-1.875 -1.875,-1.875 h -41.25 c -1.035,0 -1.875,0.84 -1.875,1.875 v 1.875 h 45 z" /><path
   style="fill:#fe2851;stroke-width:0.1171875;fill-opacity:1"
   inkscape:connector-curvature="0"
   id="path6"
   data-old_color="#fe2851"
   class="active-path"
   data-original="#000000"
   d="m 79.000001,35.874999 c 0,-1.035 -0.84,-1.875 -1.875,-1.875 h -26.25 c -1.035,0 -1.875,0.84 -1.875,1.875 V 37.75 h 30 z" /><path
   inkscape:connector-curvature="0"
   d="M 72.884143,57.368056 59.578458,60.80632 c -0.999369,0.268784 -1.803916,1.334898 -1.803916,2.368542 v 16.404811 c -1.129233,-0.581705 -2.434313,-0.723133 -3.66195,-0.396862 -2.435286,0.633176 -3.961399,2.678822 -3.440067,4.567522 0.523135,1.8887 2.92054,2.943991 5.355826,2.310819 1.941014,-0.5051 3.281324,-1.931995 3.494186,-3.438266 l 0.05592,-15.50286 12.627413,-3.382342 v 12.232355 c -1.130208,-0.580951 -2.435991,-0.721098 -3.663754,-0.393254 -2.435286,0.631371 -3.9614,2.677012 -3.438263,4.565712 0.52133,1.888703 2.920539,2.943998 5.354022,2.310822 1.942818,-0.505095 3.283128,-1.931998 3.495989,-3.43827 l 0.05412,-20.182213 c 0,-0.775684 -0.478037,-1.354741 -1.125643,-1.46478 z"
   id="path23"
   style="fill:#ffffff;fill-opacity:1;fill-rule:evenodd;stroke:none;stroke-width:1.8039161" /></svg>