<?xml version="1.0" encoding="UTF-8" standalone="no"?>
<svg
   xmlns:dc="http://purl.org/dc/elements/1.1/"
   xmlns:cc="http://creativecommons.org/ns#"
   xmlns:rdf="http://www.w3.org/1999/02/22-rdf-syntax-ns#"
   xmlns:svg="http://www.w3.org/2000/svg"
   xmlns="http://www.w3.org/2000/svg"
   xmlns:sodipodi="http://sodipodi.sourceforge.net/DTD/sodipodi-0.dtd"
   xmlns:inkscape="http://www.inkscape.org/namespaces/inkscape"
   version="1.1"
   id="Capa_1"
   x="0px"
   y="0px"
   viewBox="0 0 128 128"
   xml:space="preserve"
   width="128"
   height="128"
   class=""
   sodipodi:docname="artist-default-cover.svg"
   inkscape:version="0.92.3 (2405546, 2018-03-11)"><metadata
   id="metadata15"><rdf:RDF><cc:Work
       rdf:about=""><dc:format>image/svg+xml</dc:format><dc:type
         rdf:resource="http://purl.org/dc/dcmitype/StillImage" /><dc:title /></cc:Work></rdf:RDF></metadata><defs
   id="defs13" /><sodipodi:namedview
   pagecolor="#ffffff"
   bordercolor="#666666"
   borderopacity="1"
   objecttolerance="10"
   gridtolerance="10"
   guidetolerance="10"
   inkscape:pageopacity="0"
   inkscape:pageshadow="2"
   inkscape:window-width="1366"
   inkscape:window-height="705"
   id="namedview11"
   showgrid="false"
   inkscape:zoom="0.72091745"
   inkscape:cx="322.93727"
   inkscape:cy="63.056815"
   inkscape:window-x="0"
   inkscape:window-y="30"
   inkscape:window-maximized="1"
   inkscape:current-layer="Capa_1" /> <rect
   style="opacity:1;fill:#ffffff;fill-opacity:1;fill-rule:evenodd;stroke:none;stroke-width:0.7497772;stroke-miterlimit:4;stroke-dasharray:none;stroke-opacity:1"
   id="rect817"
   width="128"
   height="128"
   x="0"
   y="0" /><path
   inkscape:connector-curvature="0"
   id="path2-3"
   style="color:#000000;overflow:visible;opacity:0.2;fill:#000000;fill-opacity:1;stroke-width:4.14146137;marker:none"
   overflow="visible"
   d="m 64.00004,37.08 c -5.71816,0 -10.35366,4.63549 -10.35366,10.35365 v 4.14146 c -1.14718,0 -2.07072,0.92355 -2.07072,2.07073 v 2.07073 c 0,2.28609 0.92769,4.14147 2.07072,4.14147 0.15323,0 0.24435,-0.19879 0.3893,-0.26092 0.61294,3.14337 1.94649,5.8726 3.75217,7.76525 -0.0829,2.90316 -0.439,3.06468 -0.64607,4.01307 -4.74198,4.17874 -9.98921,6.48967 -15.14533,9.70759 -0.47903,0.37447 -0.7636,0.94509 -0.77445,1.55305 v 6.21219 c 0,1.14718 0.92355,2.07073 2.07073,2.07073 h 41.41461 c 1.14719,0 2.07074,-0.92355 2.07074,-2.07073 V 82.63608 C 86.76568,82.09329 86.53124,81.5792 86.13201,81.21141 80.8972,77.98107 75.5133,75.72812 70.85829,71.37544 c -0.20707,-0.94839 -0.56323,-1.10991 -0.64606,-4.01307 1.80568,-1.89265 3.13509,-4.62188 3.75217,-7.76525 0.14494,0.0621 0.23606,0.26092 0.3893,0.26092 1.14303,0 2.07072,-1.85538 2.07072,-4.14147 v -2.07073 c 0,-1.14718 -0.92354,-2.07073 -2.07072,-2.07073 V 47.43365 C 74.3537,41.71549 69.71824,37.08 64.00004,37.08 Z"
   sodipodi:nodetypes="sscssscccccsssscccccssscss" /><path
   inkscape:connector-curvature="0"
   id="path2"
   style="color:#000000;overflow:visible;fill:#fe2851;fill-opacity:1;stroke-width:4.14146137;marker:none"
   overflow="visible"
   d="m 63.45804,36.38 c -5.71816,0 -10.35366,4.635489 -10.35366,10.353653 v 4.141463 c -1.14718,0 -2.07072,0.923545 -2.07072,2.07073 v 2.07073 c 0,2.286087 0.92769,4.141463 2.07072,4.141463 0.15323,0 0.24435,-0.198791 0.3893,-0.260913 0.61294,3.143369 1.94649,5.872593 3.75217,7.765241 -0.0829,2.903164 -0.439,3.064681 -0.64607,4.013076 -4.74198,4.178735 -9.98921,6.48967 -15.14533,9.707585 -0.47903,0.374472 -0.7636,0.945091 -0.77445,1.553049 v 6.212193 c 0,1.147184 0.92355,2.07073 2.07073,2.07073 h 41.41461 c 1.14719,0 2.07074,-0.923546 2.07074,-2.07073 V 81.936077 C 86.22368,81.393289 85.98924,80.8792 85.59001,80.511415 80.3552,77.281074 74.9713,75.028119 70.31629,70.675443 c -0.20707,-0.948395 -0.56323,-1.109912 -0.64606,-4.013076 1.80568,-1.892648 3.13509,-4.621872 3.75217,-7.765241 0.14494,0.06213 0.23606,0.260913 0.3893,0.260913 1.14303,0 2.07072,-1.855376 2.07072,-4.141463 v -2.07073 c 0,-1.147185 -0.92354,-2.07073 -2.07072,-2.07073 V 46.733653 C 73.8117,41.015489 69.17624,36.38 63.45804,36.38 Z"
   sodipodi:nodetypes="sscssscccccsssscccccssscss" /></svg>