<?xml version="1.0" encoding="UTF-8" standalone="no"?>
<svg
   xmlns:dc="http://purl.org/dc/elements/1.1/"
   xmlns:cc="http://creativecommons.org/ns#"
   xmlns:rdf="http://www.w3.org/1999/02/22-rdf-syntax-ns#"
   xmlns:svg="http://www.w3.org/2000/svg"
   xmlns="http://www.w3.org/2000/svg"
   id="svg2"
   version="1.1"
   viewBox="0 0 48 48"
   height="48"
   width="48">
  <metadata
     id="metadata86">
    <rdf:RDF>
      <cc:Work
         rdf:about="">
        <dc:format>image/svg+xml</dc:format>
        <dc:type
           rdf:resource="http://purl.org/dc/dcmitype/StillImage" />
        <dc:title>folder-open</dc:title>
      </cc:Work>
    </rdf:RDF>
  </metadata>
  <!-- Generator: Sketch 41 (35326) - http://www.bohemiancoding.com/sketch -->
  <title
     id="title4">folder-open</title>
  <desc
     id="desc6">Created with Sketch.</desc>
  <defs
     id="defs8">
    <linearGradient
       gradientUnits="userSpaceOnUse"
       gradientTransform="scale(1.6087993,0.62158157)"
       id="linearGradient-1"
       y2="-9.4702921"
       x2="41.033173"
       y1="61.617596"
       x1="41.033173">
      <stop
         id="stop11"
         offset="0%"
         stop-opacity="0.32173914"
         stop-color="#000000" />
      <stop
         id="stop13"
         offset="100%"
         stop-opacity="0.27826086"
         stop-color="#000000" />
    </linearGradient>
    <linearGradient
       gradientUnits="userSpaceOnUse"
       gradientTransform="scale(1.6461098,0.6074929)"
       id="linearGradient-2"
       y2="21.754229"
       x2="7.5762472"
       y1="16.815899"
       x1="7.5762472">
      <stop
         id="stop16"
         offset="0%"
         stop-color="#F9F9F9" />
      <stop
         id="stop18"
         offset="100%"
         stop-color="#D8D8D8" />
    </linearGradient>
    <linearGradient
       gradientUnits="userSpaceOnUse"
       gradientTransform="scale(1.67332,0.59761431)"
       id="linearGradient-3"
       y2="59.005367"
       x2="13.22902"
       y1="2.2967653"
       x1="13.22902">
      <stop
         id="stop21"
         offset="0%"
         stop-color="#FFFFFF" />
      <stop
         id="stop23"
         offset="7.395859%"
         stop-opacity="0.23529412"
         stop-color="#FFFFFF" />
      <stop
         id="stop25"
         offset="99.001008%"
         stop-opacity="0.15686275"
         stop-color="#FFFFFF" />
      <stop
         id="stop27"
         offset="100%"
         stop-opacity="0.39215687"
         stop-color="#FFFFFF" />
    </linearGradient>
    <linearGradient
       gradientUnits="userSpaceOnUse"
       gradientTransform="scale(2.527625,0.39562831)"
       id="linearGradient-4"
       y2="98.577347"
       x2="7.6554499"
       y1="83.411591"
       x1="7.6554499">
      <stop
         id="stop30"
         offset="0%"
         stop-opacity="0"
         stop-color="#000000" />
      <stop
         id="stop32"
         offset="50%"
         stop-color="#000000" />
      <stop
         id="stop34"
         offset="100%"
         stop-opacity="0"
         stop-color="#000000" />
    </linearGradient>
    <radialGradient
       gradientUnits="userSpaceOnUse"
       gradientTransform="matrix(-9.750391e-8,0.64882315,-0.79931652,-1.2011977e-7,66.238827,0.84916134)"
       id="radialGradient-5"
       r="4.6781745"
       fy="28.747265"
       fx="54.121887"
       cy="28.747265"
       cx="54.121887">
      <stop
         id="stop37"
         offset="0%"
         stop-color="#000000" />
      <stop
         id="stop39"
         offset="100%"
         stop-opacity="0"
         stop-color="#000000" />
    </radialGradient>
    <radialGradient
       gradientUnits="userSpaceOnUse"
       gradientTransform="matrix(-7.2145077e-8,-0.63372822,0.79932177,-9.0996626e-8,-18.238947,39.72223)"
       id="radialGradient-6"
       r="4.678174"
       fy="28.747265"
       fx="5.9292555"
       cy="28.747265"
       cx="5.9292555">
      <stop
         id="stop42"
         offset="0%"
         stop-color="#000000" />
      <stop
         id="stop44"
         offset="100%"
         stop-opacity="0"
         stop-color="#000000" />
    </radialGradient>
    <linearGradient
       gradientUnits="userSpaceOnUse"
       gradientTransform="scale(1.4283222,0.70012212)"
       id="linearGradient-7"
       y2="19.254786"
       x2="16.871092"
       y1="52.296848"
       x1="16.871092">
      <stop
         id="stop47"
         offset="0%"
         stop-color="#FF66A1" />
      <stop
         id="stop49"
         offset="100%"
         stop-color="#FF8CB8" />
    </linearGradient>
    <linearGradient
       gradientUnits="userSpaceOnUse"
       gradientTransform="scale(1.4105099,0.70896349)"
       id="linearGradient-8"
       y2="43.92662"
       x2="16.05353"
       y1="58.51656"
       x1="16.155237">
      <stop
         id="stop52"
         offset="0%"
         stop-opacity="0.498"
         stop-color="#0A0A0A" />
      <stop
         id="stop54"
         offset="100%"
         stop-opacity="0"
         stop-color="#0A0A0A" />
    </linearGradient>
    <linearGradient
       gradientUnits="userSpaceOnUse"
       gradientTransform="scale(1.4485068,0.69036613)"
       id="linearGradient-9"
       y2="51.379299"
       x2="14.818269"
       y1="20.919098"
       x1="14.818269">
      <stop
         id="stop57"
         offset="0%"
         stop-color="#FFFFFF" />
      <stop
         id="stop59"
         offset="1.022492%"
         stop-opacity="0.23529412"
         stop-color="#FFFFFF" />
      <stop
         id="stop61"
         offset="99.001008%"
         stop-opacity="0.15686275"
         stop-color="#FFFFFF" />
      <stop
         id="stop63"
         offset="100%"
         stop-opacity="0.39215687"
         stop-color="#FFFFFF" />
    </linearGradient>
  </defs>
  <g
     id="layer1"
     transform="translate(0,8)"
     style="fill:none;fill-rule:evenodd;stroke:none;stroke-width:1">
    <path
       d="m 5.5000133,0.4999877 c -0.554,0 -1,0.446 -1,1 l 0,2.0000003 -1,0 c -0.554,0 -1,0.446 -1,1 l 0,12 42.9999997,0 0,-12 c 0,-0.554 -0.446,-1 -1,-1 l -23,0 0,-2.0000003 c 0,-0.554 -0.446,-1 -1,-1 l -14.9999997,0 z"
       id="rect4251-0-0-9-7-3-3"
       style="opacity:0.8;stroke:url(#linearGradient-1)" />
    <path
       d="m 5.5000133,0.9999877 c -0.277,0 -0.5,0.223 -0.5,0.5 l 0,2.5000003 -1.5,0 c -0.277,0 -0.5,0.223 -0.5,0.5 l 0,12 41.9999997,0 0,-12 c 0,-0.277 -0.223,-0.5 -0.5,-0.5 l -23.5,0 0,-2.5000003 c 0,-0.277 -0.223,-0.5 -0.5,-0.5 l -14.9999997,0 z"
       id="rect4251-4-8-2-72-8"
       style="fill:url(#linearGradient-2)" />
    <polygon
       id="rect4251-9-9-8-1-7-6"
       points="44.500013,4.499988 20.500013,4.499988 20.500013,1.4999877 5.5000133,1.4999877 5.5000133,4.499988 3.5000133,4.499988 3.5000133,15.499988 44.500013,15.499988 "
       style="stroke:url(#linearGradient-3)" />
    <rect
       id="rect4173-6-1-6-8-3"
       x="4.833375"
       y="33"
       width="38.333332"
       height="6.0000005"
       style="opacity:0.3;fill:url(#linearGradient-4)" />
    <path
       d="m 43.166713,33.000198 0,5.99967 c 1.5856,0.0113 3.8333,-1.34422 3.8333,-3.00022 0,-1.656 -1.7695,-2.99945 -3.8333,-2.99945 z"
       id="path5058-7-5-8-1-4"
       style="opacity:0.3;fill:url(#radialGradient-5)" />
    <path
       d="m 4.8333133,33.000198 0,5.99967 c -1.5856,0.0113 -3.8333,-1.34422 -3.8333,-3.00022 0,-1.656 1.7695,-2.99945 3.8333,-2.99945 z"
       id="path5018-8-7-1-0-4"
       style="opacity:0.3;fill:url(#radialGradient-6)" />
    <path
       d="m 1.1627133,13.499988 c -1.07270001,0.10099 -0.49950001,1.27922 -0.58500001,1.86617 0.3005,1.21697 1.97640001,19.43387 2.17930001,20.74656 0.3418,0.78845 1.5944,0.38468 2.3881,0.48477 l 39.5805997,0 c 1.0894,-0.0871 0.6365,-1.14932 0.7897,-1.75724 0.062,-0.88455 1.7066,-14.73976 2.1793,-20.74656 -0.2512,-0.77914 -1.4877,-0.5937 -2.263,-0.5937 l -44.2689997,0 z"
       id="path7314-3-7"
       style="fill:url(#linearGradient-7)" />
    <path
       d="m 2.0582133,13.871588 43.8964997,3.2e-4 c 0.6342,0 1.0452,0.35535 1.0452,0.79713 l -1.0324,21.5475 c 0.015,0.55898 -0.2091,0.78061 -0.9459,0.76889 l -41.7807997,-0.0141 c -0.6341,0 -1.2736,-0.32989 -1.2736,-0.77166 l -0.9541,-21.53068 c 0,-0.44178 0.411,-0.79743 1.0451,-0.79743 l 0,3e-5 z"
       id="path6127-7-0-2-7-0"
       style="opacity:0.4;fill:url(#linearGradient-8)" />
    <path
       d="m 1.601459,14.656238 c 0.02173,0.102759 -0.01119,0.259429 0,0.4375 l 0.03125,0 c 0.08755,0.354594 0.111073,0.716468 0.1875,1.34375 0.07643,0.627282 0.179267,1.422066 0.28125,2.375 0.203965,1.905868 0.445415,4.344567 0.6875,6.78125 0.242085,2.436683 0.465329,4.871394 0.65625,6.78125 0.165726,1.657825 0.260654,2.659047 0.3125,3.09375 0.282286,0.0038 0.772765,-0.04348 1.34375,0 l 0,-0.03125 39.1875,0 c -0.0175,-0.151887 -0.0242,-0.333972 0.0312,-0.6875 l -0.0312,0 c 0.002,-0.02462 0.0288,-0.157775 0.0312,-0.1875 0.0344,-0.41345 0.12159,-1.208643 0.28125,-2.625 0.17113,-1.518186 0.41643,-3.526172 0.65625,-5.6875 0.45396,-4.091183 0.90598,-8.589135 1.15625,-11.59375 -0.26313,-0.01293 -0.61515,0 -1.03125,0 l -43.78125,0 5e-5,0 z"
       id="path22379-0-6"
       style="opacity:0.5;stroke:url(#linearGradient-9);stroke-width:1.00000012" />
    <path
       d="m 1.1627133,13.499988 c -1.07270001,0.10099 -0.49950001,1.27922 -0.58500001,1.86617 0.3005,1.21697 1.97640001,19.43387 2.17930001,20.74656 0.3418,0.78845 1.5944,0.38468 2.3881,0.48477 l 39.5805997,0 c 1.0894,-0.0871 0.6365,-1.14932 0.7897,-1.75724 0.062,-0.88455 1.7066,-14.73976 2.1793,-20.74656 -0.2512,-0.77914 -1.4877,-0.5937 -2.263,-0.5937 l -44.2689997,0 z"
       id="path7314-3-7-4"
       style="opacity:0.3;stroke:#000000" />
  </g>
</svg>
