<?xml version="1.0" encoding="UTF-8" standalone="no"?>
<svg
   xmlns:dc="http://purl.org/dc/elements/1.1/"
   xmlns:cc="http://creativecommons.org/ns#"
   xmlns:rdf="http://www.w3.org/1999/02/22-rdf-syntax-ns#"
   xmlns:svg="http://www.w3.org/2000/svg"
   xmlns="http://www.w3.org/2000/svg"
   xmlns:sodipodi="http://sodipodi.sourceforge.net/DTD/sodipodi-0.dtd"
   xmlns:inkscape="http://www.inkscape.org/namespaces/inkscape"
   viewBox="0 0 16 16"
   version="1.1"
   id="svg10"
   sodipodi:docname="planner-playlist-symbolic.svg"
   width="16"
   height="16"
   inkscape:version="0.92.3 (2405546, 2018-03-11)">
  <metadata
     id="metadata16">
    <rdf:RDF>
      <cc:Work
         rdf:about="">
        <dc:format>image/svg+xml</dc:format>
        <dc:type
           rdf:resource="http://purl.org/dc/dcmitype/StillImage" />
        <dc:title />
      </cc:Work>
    </rdf:RDF>
  </metadata>
  <defs
     id="defs14" />
  <sodipodi:namedview
     pagecolor="#ffffff"
     bordercolor="#666666"
     borderopacity="1"
     objecttolerance="10"
     gridtolerance="10"
     guidetolerance="10"
     inkscape:pageopacity="0"
     inkscape:pageshadow="2"
     inkscape:window-width="1366"
     inkscape:window-height="705"
     id="namedview12"
     showgrid="false"
     inkscape:lockguides="true"
     inkscape:zoom="32.625"
     inkscape:cx="8"
     inkscape:cy="8"
     inkscape:window-x="0"
     inkscape:window-y="30"
     inkscape:window-maximized="1"
     inkscape:current-layer="svg10"
     showguides="true"
     inkscape:guide-bbox="true">
    <sodipodi:guide
       position="13.731801,13.210728"
       orientation="1,0"
       id="guide830"
       inkscape:locked="true" />
  </sodipodi:namedview>
  <rect
     style="opacity:1;fill:#ffffff;fill-opacity:1;fill-rule:evenodd;stroke:none;stroke-width:0.7497772;stroke-miterlimit:4;stroke-dasharray:none;stroke-opacity:1"
     id="rect817"
     width="128"
     height="128"
     x="195.2565"
     y="-325.66525" />
  <path
     d="M 13.102,6.439 H 2.8611422 c -0.3747267,0 -0.6813214,0.3062732 -0.6813214,0.681 0,0.3747268 0.3065947,0.681 0.6813214,0.681 H 13.102 c 0.374727,0 0.682,-0.3062732 0.682,-0.681 0,-0.3747268 -0.307273,-0.681 -0.682,-0.681 z m -5.2,4.48 H 2.861 c -0.3747267,0 -0.6811792,0.306273 -0.6811792,0.681 0,0.374726 0.3065947,0.681 0.6813214,0.681 H 7.902 c 0.374727,0 0.682,-0.306274 0.682,-0.681 0,-0.374727 -0.307273,-0.681 -0.682,-0.681 z M 2.8611422,3.5210093 H 13.102255 c 0.374727,0 0.681745,-0.306595 0.681745,-0.6813218 0,-0.3747268 -0.307273,-0.6813215 -0.682,-0.6813215 H 2.8611422 c -0.3747267,0 -0.6813214,0.3065947 -0.6813214,0.6813215 0,0.3747268 0.3065947,0.6813218 0.6813214,0.6813218 z"
     id="path8-3"
     inkscape:connector-curvature="0"
     sodipodi:nodetypes="sssssssssssssssssssss"
     style="fill-opacity:1;stroke-width:0.04258259" />
  <g
     id="g816"
     transform="matrix(0.3844189,0,0,0.3844189,-111.97318,17.18263)"
     style="color:#bebebe;fill-opacity:1">
    <path
       id="path814"
       style="overflow:visible;fill-opacity:1;marker:none"
       overflow="visible"
       d="m 315,-21.5 v 13 l 12,-6.5 z"
       inkscape:connector-curvature="0" />
  </g>
</svg>
