<?xml version="1.0" encoding="UTF-8" standalone="no"?>
<svg
   xmlns:dc="http://purl.org/dc/elements/1.1/"
   xmlns:cc="http://creativecommons.org/ns#"
   xmlns:rdf="http://www.w3.org/1999/02/22-rdf-syntax-ns#"
   xmlns:svg="http://www.w3.org/2000/svg"
   xmlns="http://www.w3.org/2000/svg"
   xmlns:sodipodi="http://sodipodi.sourceforge.net/DTD/sodipodi-0.dtd"
   xmlns:inkscape="http://www.inkscape.org/namespaces/inkscape"
   version="1.1"
   id="Capa_1"
   x="0px"
   y="0px"
   viewBox="0 0 128 128"
   xml:space="preserve"
   width="128"
   height="128"
   class=""
   sodipodi:docname="playlist-default-cover.svg"
   inkscape:version="0.92.3 (2405546, 2018-03-11)"><metadata
   id="metadata15"><rdf:RDF><cc:Work
       rdf:about=""><dc:format>image/svg+xml</dc:format><dc:type
         rdf:resource="http://purl.org/dc/dcmitype/StillImage" /><dc:title /></cc:Work></rdf:RDF></metadata><defs
   id="defs13" /><sodipodi:namedview
   pagecolor="#ffffff"
   bordercolor="#666666"
   borderopacity="1"
   objecttolerance="10"
   gridtolerance="10"
   guidetolerance="10"
   inkscape:pageopacity="0"
   inkscape:pageshadow="2"
   inkscape:window-width="1366"
   inkscape:window-height="705"
   id="namedview11"
   showgrid="false"
   inkscape:zoom="4.078125"
   inkscape:cx="64"
   inkscape:cy="64"
   inkscape:window-x="0"
   inkscape:window-y="30"
   inkscape:window-maximized="1"
   inkscape:current-layer="Capa_1" /> <rect
   style="opacity:1;fill:#ffffff;fill-opacity:1;fill-rule:evenodd;stroke:none;stroke-width:0.7497772;stroke-miterlimit:4;stroke-dasharray:none;stroke-opacity:1"
   id="rect817"
   width="128"
   height="128"
   x="0"
   y="0" /><g
   id="g826"
   transform="matrix(0.19466326,0,0,0.19466326,-10.680037,87.440895)"
   style="fill:#fe2851;fill-opacity:1"><path
     style="fill:#fe2851;fill-opacity:1"
     sodipodi:nodetypes="sssssssssssssssssssss"
     inkscape:connector-curvature="0"
     id="path8"
     d="M 405.75,-136.41692 H 235.2506 c -8.8,0 -16,7.2 -16,16 0,8.8 7.2,16 16,16 H 405.75 c 8.8,0 16,-7.2 16,-16 0,-8.8 -7.2,-16 -16,-16 z m 70.0006,123.999994 h -240.5 c -8.8,0 -16,7.1999999 -16,15.9999999 0,8.8000001 7.2,16.0000001 16,16.0000001 h 240.5 c 8.8,0 16,-7.2 16,-16.0000001 0,-8.8 -7.2,-15.9999999 -16,-15.9999999 z m -240.5,-215.999994 h 240.5 c 8.8,0 16,-7.20001 16,-16.00001 0,-8.8 -7.2,-16 -16,-16 h -240.5 c -8.8,0 -16,7.2 -16,16 0,8.8 7.2,16.00001 16,16.00001 z" /><path
     style="fill:#fe2851;fill-opacity:1;stroke-width:0.36583507"
     inkscape:connector-curvature="0"
     d="m 544.43829,-194.83385 c -1.71942,0.32925 -73.89867,14.34073 -75.43518,14.6334 -1.53651,0.29267 -2.96326,1.317 -2.96326,2.92668 v 87.837014 c 0,0.58533 -0.0366,2.63401 -0.87801,4.28026 -1.13409,2.15843 -3.10959,3.73152 -5.88994,4.64611 -1.20726,0.40242 -2.85352,0.76826 -4.79244,1.20726 -8.81663,1.9755 -23.55978,5.34119 -23.55978,18.95025 0,11.37747 8.1947,16.49917 15.25533,17.37717 0.76824,0.10975 1.64625,0.25608 2.59742,0.25608 2.45109,0 13.17007,-1.20725 18.73076,-4.82902 4.02419,-2.63402 8.81662,-7.82887 8.81662,-17.48691 v -77.739964 c 0,-1.39018 0.98776,-2.59743 2.34135,-2.85351 l 55.60691,-11.23114 c 1.82918,-0.36584 3.51202,1.02434 3.51202,2.85351 v 47.88781 c 0,1.49993 -0.0732,3.25594 -0.91459,4.9022 -1.13408,2.158422 -3.1096,3.731512 -5.92653,4.646102 -1.20725,0.40242 -3.21935,0.768255 -5.15827,1.207265 -8.81661,1.97551 -23.55976,5.304607 -23.55976,18.913667 0,12.32864 9.29221,17.26741 15.29191,17.66984 2.37792,0.14633 4.09733,0.10975 7.09718,-0.32926 2.99984,-0.439 8.59712,-2.01209 13.35298,-4.75585 6.54845,-3.7681 10.06046,-9.80438 10.06046,-17.63325 V -192.01693 c -0.0366,-1.60967 -1.39017,-3.25593 -3.58518,-2.81692 z"
     id="path823" /></g></svg>