<?xml version="1.0" encoding="UTF-8" standalone="no"?>
<svg
   xmlns:dc="http://purl.org/dc/elements/1.1/"
   xmlns:cc="http://creativecommons.org/ns#"
   xmlns:rdf="http://www.w3.org/1999/02/22-rdf-syntax-ns#"
   xmlns:svg="http://www.w3.org/2000/svg"
   xmlns="http://www.w3.org/2000/svg"
   xmlns:sodipodi="http://sodipodi.sourceforge.net/DTD/sodipodi-0.dtd"
   xmlns:inkscape="http://www.inkscape.org/namespaces/inkscape"
   height="16"
   width="16"
   version="1.1"
   id="svg8"
   sodipodi:docname="document-open-recent-symbolic.svg"
   inkscape:version="0.92.3 (2405546, 2018-03-11)">
  <metadata
     id="metadata14">
    <rdf:RDF>
      <cc:Work
         rdf:about="">
        <dc:format>image/svg+xml</dc:format>
        <dc:type
           rdf:resource="http://purl.org/dc/dcmitype/StillImage" />
      </cc:Work>
    </rdf:RDF>
  </metadata>
  <defs
     id="defs12" />
  <sodipodi:namedview
     pagecolor="#ffffff"
     bordercolor="#666666"
     borderopacity="1"
     objecttolerance="10"
     gridtolerance="10"
     guidetolerance="10"
     inkscape:pageopacity="0"
     inkscape:pageshadow="2"
     inkscape:window-width="1366"
     inkscape:window-height="705"
     id="namedview10"
     showgrid="false"
     inkscape:zoom="6.8690196"
     inkscape:cx="12.008418"
     inkscape:cy="-2.8518087"
     inkscape:window-x="0"
     inkscape:window-y="30"
     inkscape:window-maximized="1"
     inkscape:current-layer="svg8" />
  <path
     inkscape:connector-curvature="0"
     id="path2"
     style="color:#bebebe;overflow:visible;fill:#666666;marker:none"
     overflow="visible"
     d="M 8.885,1 C 5.18,1 2.131,3.44 1.798,7 H 0 L 2.655,10.333 5.309,7 H 3.576 C 3.904,4.404 6.16,2.74 8.886,2.74 c 2.95,0 5.345,2.356 5.345,5.26 0,2.904 -2.395,5.26 -5.346,5.26 -1.6,0 -3.038,-0.694 -4.018,-1.793 l -1.3,1.185 A 7.145,7.145 0 0 0 8.885,15 C 12.813,15 16,11.864 16,8 16,4.136 12.813,1 8.885,1 Z" />
  <g
     transform="matrix(0.40759922,0,0,0.40759922,-121.26677,14.080911)"
     id="g4"
     style="color:#bebebe;stroke-width:2.45339036">
    <path
       d="m 315,-21.5 v 13 l 12,-6.5 z"
       overflow="visible"
       style="overflow:visible;fill:#666666;stroke-width:2.45339036;marker:none"
       id="path2-3"
       inkscape:connector-curvature="0" />
  </g>
</svg>
