<?xml version="1.0" encoding="UTF-8" standalone="no"?>
<svg
   xmlns:osb="http://www.openswatchbook.org/uri/2009/osb"
   xmlns:dc="http://purl.org/dc/elements/1.1/"
   xmlns:cc="http://creativecommons.org/ns#"
   xmlns:rdf="http://www.w3.org/1999/02/22-rdf-syntax-ns#"
   xmlns:svg="http://www.w3.org/2000/svg"
   xmlns="http://www.w3.org/2000/svg"
   xmlns:sodipodi="http://sodipodi.sourceforge.net/DTD/sodipodi-0.dtd"
   xmlns:inkscape="http://www.inkscape.org/namespaces/inkscape"
   height="16"
   width="16"
   version="1.1"
   id="svg6"
   sodipodi:docname="slider-symbolic.svg"
   inkscape:version="0.92.3 (2405546, 2018-03-11)">
  <metadata
     id="metadata12">
    <rdf:RDF>
      <cc:Work
         rdf:about="">
        <dc:format>image/svg+xml</dc:format>
        <dc:type
           rdf:resource="http://purl.org/dc/dcmitype/StillImage" />
        <dc:title></dc:title>
      </cc:Work>
    </rdf:RDF>
  </metadata>
  <defs
     id="defs10">
    <linearGradient
       id="linearGradient1053"
       osb:paint="solid">
      <stop
         style="stop-color:#ffffff;stop-opacity:1;"
         offset="0"
         id="stop1051" />
    </linearGradient>
    <clipPath
       clipPathUnits="userSpaceOnUse"
       id="clipPath1069">
      <g
         style="fill:#666666;fill-opacity:1;stroke:none;stroke-opacity:1"
         id="use1071"
         inkscape:label="Clip">
        <rect
           style="opacity:1;fill:#666666;fill-opacity:1;fill-rule:nonzero;stroke:none;stroke-opacity:1;paint-order:stroke markers fill"
           id="rect1073"
           width="6.3563204"
           height="6.3563199"
           x="1.9099624"
           y="1.9653785"
           ry="0.21572737" />
      </g>
    </clipPath>
  </defs>
  <sodipodi:namedview
     pagecolor="#ffffff"
     bordercolor="#666666"
     borderopacity="1"
     objecttolerance="10"
     gridtolerance="10"
     guidetolerance="10"
     inkscape:pageopacity="0"
     inkscape:pageshadow="2"
     inkscape:window-width="1366"
     inkscape:window-height="705"
     id="namedview8"
     showgrid="false"
     showguides="true"
     inkscape:guide-bbox="true"
     inkscape:zoom="32.625"
     inkscape:cx="8"
     inkscape:cy="6.7739464"
     inkscape:window-x="0"
     inkscape:window-y="30"
     inkscape:window-maximized="1"
     inkscape:current-layer="svg6" />
  <path
     inkscape:connector-curvature="0"
     id="path2-3"
     style="color:#bebebe;overflow:visible;fill:#666666;stroke-width:1.74999928;marker:none"
     overflow="visible"
     d="m -2.633,4.5000009 c 0,0 -0.875,0 -0.875,0.875 V 10.625 c 0,0 0,0.875 0.875,0.875 h 5.25 c 0,0 0.875,0 0.875,-0.875 V 5.3750009 c 0,0 0,-0.875 -0.875,-0.875 z M -2.758,5.25 h 5.5 v 5.5 h -5.5 z"
     sodipodi:nodetypes="cscscscscccccc" />
  <path
     inkscape:connector-curvature="0"
     id="path2-3-2"
     style="color:#bebebe;overflow:visible;fill:#666666;stroke-width:1.74999928;marker:none"
     overflow="visible"
     d="m 5.375,4.5000013 c 0,0 -0.875,0 -0.875,0.875 V 10.625 c 0,0 0,0.875 0.875,0.875 h 5.25 c 0,0 0.875,0 0.875,-0.875 V 5.3750013 c 0,0 0,-0.875 -0.875,-0.875 z M 5.25,5.2500004 h 5.5 V 10.75 h -5.5 z"
     sodipodi:nodetypes="cscscscscccccc" />
  <path
     inkscape:connector-curvature="0"
     id="path2-3-2-7"
     style="color:#bebebe;overflow:visible;fill:#666666;stroke-width:1.74999928;marker:none"
     overflow="visible"
     d="m 13.416,4.5000013 c 0,0 -0.875,0 -0.875,0.875 V 10.625 c 0,0 0,0.875 0.875,0.875 h 5.25 c 0,0 0.875,0 0.875,-0.875 V 5.3750013 c 0,0 0,-0.875 -0.875,-0.875 z m -0.125,0.7499991 h 5.5 V 10.75 h -5.5 z"
     sodipodi:nodetypes="cscscscscccccc" />
</svg>
