<?xml version="1.0" encoding="UTF-8" standalone="no"?>
<svg
   xmlns:dc="http://purl.org/dc/elements/1.1/"
   xmlns:cc="http://creativecommons.org/ns#"
   xmlns:rdf="http://www.w3.org/1999/02/22-rdf-syntax-ns#"
   xmlns:svg="http://www.w3.org/2000/svg"
   xmlns="http://www.w3.org/2000/svg"
   xmlns:sodipodi="http://sodipodi.sourceforge.net/DTD/sodipodi-0.dtd"
   xmlns:inkscape="http://www.inkscape.org/namespaces/inkscape"
   version="1.1"
   id="Capa_1"
   x="0px"
   y="0px"
   viewBox="0 0 128 128"
   xml:space="preserve"
   width="128"
   height="128"
   class=""
   sodipodi:docname="track-default-cover.svg"
   inkscape:version="0.92.3 (2405546, 2018-03-11)"><metadata
   id="metadata15"><rdf:RDF><cc:Work
       rdf:about=""><dc:format>image/svg+xml</dc:format><dc:type
         rdf:resource="http://purl.org/dc/dcmitype/StillImage" /><dc:title /></cc:Work></rdf:RDF></metadata><defs
   id="defs13" /><sodipodi:namedview
   pagecolor="#ffffff"
   bordercolor="#666666"
   borderopacity="1"
   objecttolerance="10"
   gridtolerance="10"
   guidetolerance="10"
   inkscape:pageopacity="0"
   inkscape:pageshadow="2"
   inkscape:window-width="1366"
   inkscape:window-height="705"
   id="namedview11"
   showgrid="false"
   inkscape:zoom="1.4418349"
   inkscape:cx="-97.890811"
   inkscape:cy="18.304822"
   inkscape:window-x="0"
   inkscape:window-y="30"
   inkscape:window-maximized="1"
   inkscape:current-layer="Capa_1" /> <rect
   style="opacity:1;fill:#ffffff;fill-opacity:1;fill-rule:evenodd;stroke:none;stroke-width:0.7497772;stroke-miterlimit:4;stroke-dasharray:none;stroke-opacity:1"
   id="rect817"
   width="128"
   height="128"
   x="0"
   y="0" /><path
   inkscape:connector-curvature="0"
   d="m 83.913188,36.956356 -25.008106,6.449149 c -1.878325,0.504157 -3.390484,2.503872 -3.390484,4.442691 v 30.770545 c -2.122395,-1.091097 -4.575305,-1.356391 -6.882676,-0.744397 -4.577127,1.187653 -7.445479,5.024675 -6.465636,8.567313 0.983245,3.542629 5.48919,5.522052 10.06633,4.33442 3.648147,-0.947418 6.16729,-3.62384 6.567362,-6.449161 l 0.105054,-29.078772 23.733315,-6.344259 v 22.944249 c -2.124233,-1.089675 -4.578454,-1.352562 -6.886055,-0.737619 -4.57713,1.184264 -7.445482,5.021288 -6.46222,8.563908 0.97984,3.542668 5.489159,5.522067 10.062918,4.334418 3.651524,-0.947414 6.170654,-3.623853 6.570736,-6.449179 L 86.0255,39.703842 c 0,-1.454953 -0.898489,-2.541096 -2.115665,-2.747486 z"
   id="path23-3"
   style="opacity:0.203;fill:#000000;fill-opacity:1;fill-rule:evenodd;stroke:none;stroke-width:3.38703942" /><path
   inkscape:connector-curvature="0"
   d="m 83.904029,36.878709 -24.80708,6.410271 c -1.86324,0.501152 -3.363218,2.488833 -3.363218,4.416027 v 30.585237 c -2.105299,-1.084493 -4.538551,-1.348194 -6.827325,-0.739889 -4.540315,1.180547 -7.385611,4.994467 -6.413663,8.515737 0.975377,3.521272 5.445078,5.488818 9.985382,4.308295 3.618854,-0.94171 6.117689,-3.601992 6.514524,-6.410305 l 0.103822,-28.903745 23.542482,-6.30599 v 22.80604 c -2.107151,-1.083037 -4.541642,-1.344414 -6.8307,-0.733095 -4.540341,1.177091 -7.385633,4.99101 -6.410263,8.512282 0.971954,3.521363 5.445033,5.488838 9.982,4.308389 3.622158,-0.941783 6.121058,-3.602099 6.517921,-6.410383 l 0.101185,-37.627966 c 0,-1.44618 -0.891198,-2.525751 -2.098631,-2.730905 z"
   id="path23"
   style="fill:#fe2851;fill-opacity:1;fill-rule:evenodd;stroke:none;stroke-width:3.36322427" /></svg>