<?xml version="1.0" encoding="UTF-8" standalone="no"?>
<svg
   xmlns:dc="http://purl.org/dc/elements/1.1/"
   xmlns:cc="http://creativecommons.org/ns#"
   xmlns:rdf="http://www.w3.org/1999/02/22-rdf-syntax-ns#"
   xmlns:svg="http://www.w3.org/2000/svg"
   xmlns="http://www.w3.org/2000/svg"
   xmlns:sodipodi="http://sodipodi.sourceforge.net/DTD/sodipodi-0.dtd"
   xmlns:inkscape="http://www.inkscape.org/namespaces/inkscape"
   version="1.1"
   id="Capa_1"
   x="0px"
   y="0px"
   viewBox="0 0 128 128"
   xml:space="preserve"
   width="128"
   height="128"
   class=""
   sodipodi:docname="track-default-cover.svg"
   inkscape:version="0.92.3 (2405546, 2018-03-11)"><metadata
   id="metadata15"><rdf:RDF><cc:Work
       rdf:about=""><dc:format>image/svg+xml</dc:format><dc:type
         rdf:resource="http://purl.org/dc/dcmitype/StillImage" /><dc:title /></cc:Work></rdf:RDF></metadata><defs
   id="defs13" /><sodipodi:namedview
   pagecolor="#ffffff"
   bordercolor="#666666"
   borderopacity="1"
   objecttolerance="10"
   gridtolerance="10"
   guidetolerance="10"
   inkscape:pageopacity="0"
   inkscape:pageshadow="2"
   inkscape:window-width="1366"
   inkscape:window-height="705"
   id="namedview11"
   showgrid="false"
   inkscape:zoom="2.0390625"
   inkscape:cx="45.406357"
   inkscape:cy="46.411845"
   inkscape:window-x="0"
   inkscape:window-y="30"
   inkscape:window-maximized="1"
   inkscape:current-layer="Capa_1" /> <rect
   style="opacity:1;fill:#ffffff;fill-opacity:1;fill-rule:evenodd;stroke:none;stroke-width:0.7497772;stroke-miterlimit:4;stroke-dasharray:none;stroke-opacity:1"
   id="rect817"
   width="128"
   height="128"
   x="0"
   y="0" /><path
   id="path814"
   d="m 87.115776,32.029669 c -0.723087,0.138472 -31.077457,6.030878 -31.723613,6.153959 -0.646166,0.123081 -1.246182,0.553856 -1.246182,1.230792 v 36.939092 c 0,0.246153 -0.0154,1.107711 -0.369234,1.800028 -0.476934,0.907708 -1.307712,1.569255 -2.476963,1.953878 -0.507705,0.169232 -1.200022,0.323083 -2.015419,0.507705 -3.707756,0.830778 -9.907865,2.246192 -9.907865,7.969366 0,4.784696 3.446213,6.938576 6.415491,7.30782 C 46.115074,95.938509 46.484318,96 46.884322,96 c 1.030789,0 5.538553,-0.507705 7.877055,-2.030799 1.692336,-1.107721 3.707755,-3.292372 3.707755,-7.353981 V 53.922358 c 0,-0.584625 0.415394,-1.09233 0.98464,-1.200021 l 23.385013,-4.723155 c 0.769237,-0.153852 1.476944,0.430774 1.476944,1.200021 v 20.138803 c 0,0.630776 -0.0308,1.369253 -0.384624,2.061569 -0.476924,0.907709 -1.307712,1.569265 -2.492344,1.953879 -0.507704,0.169241 -1.353872,0.323083 -2.16927,0.507705 -3.707756,0.830788 -9.907865,2.230811 -9.907865,7.953986 0,5.184699 3.907757,7.261659 6.430882,7.430891 1.000019,0.0615 1.723106,0.0462 2.984668,-0.138462 1.261562,-0.184622 3.615445,-0.846168 5.615484,-2.000039 2.753886,-1.584635 4.23084,-4.123139 4.23084,-7.415511 V 33.214311 c -0.0154,-0.676937 -0.584626,-1.369253 -1.507724,-1.184642 z"
   inkscape:connector-curvature="0"
   style="fill:#fe2850;fill-opacity:1;stroke-width:0.1538488" /></svg>