<?xml version="1.0" encoding="UTF-8" standalone="no"?>
<svg
   xmlns:dc="http://purl.org/dc/elements/1.1/"
   xmlns:cc="http://creativecommons.org/ns#"
   xmlns:rdf="http://www.w3.org/1999/02/22-rdf-syntax-ns#"
   xmlns:svg="http://www.w3.org/2000/svg"
   xmlns="http://www.w3.org/2000/svg"
   xmlns:xlink="http://www.w3.org/1999/xlink"
   xmlns:sodipodi="http://sodipodi.sourceforge.net/DTD/sodipodi-0.dtd"
   xmlns:inkscape="http://www.inkscape.org/namespaces/inkscape"
   inkscape:version="0.92.4 5da689c313, 2019-01-14"
   sodipodi:docname="Experiment 2.svg"
   id="svg50"
   version="1.1"
   width="128"
   height="128">
  <metadata
     id="metadata54">
    <rdf:RDF>
      <cc:Work
         rdf:about="">
        <dc:format>image/svg+xml</dc:format>
        <dc:type
           rdf:resource="http://purl.org/dc/dcmitype/StillImage" />
        <dc:title />
      </cc:Work>
    </rdf:RDF>
  </metadata>
  <sodipodi:namedview
     pagecolor="#ffffff"
     bordercolor="#666666"
     borderopacity="1"
     objecttolerance="10"
     gridtolerance="10"
     guidetolerance="10"
     inkscape:pageopacity="0"
     inkscape:pageshadow="2"
     inkscape:window-width="2560"
     inkscape:window-height="1386"
     id="namedview52"
     showgrid="false"
     showguides="false"
     inkscape:zoom="4.25"
     inkscape:cx="14.611929"
     inkscape:cy="97.329904"
     inkscape:window-x="0"
     inkscape:window-y="28"
     inkscape:window-maximized="1"
     inkscape:current-layer="layer3" />
  <defs
     id="defs32">
    <linearGradient
       inkscape:collect="always"
       id="linearGradient9093">
      <stop
         style="stop-color:#cacaca;stop-opacity:0.89411765"
         offset="0"
         id="stop9089" />
      <stop
         id="stop9099"
         offset="0.07215197"
         style="stop-color:#d4d4d4;stop-opacity:0.19075145" />
      <stop
         style="stop-color:#d4d4d4;stop-opacity:0.10404624"
         offset="0.6581583"
         id="stop9101" />
      <stop
         style="stop-color:#fcfcfc;stop-opacity:1"
         offset="1"
         id="stop9091" />
    </linearGradient>
    <linearGradient
       gradientTransform="matrix(1.25,0,0,-1.25,-95.370047,-59.908792)"
       id="g-9"
       y2="-229.75"
       gradientUnits="userSpaceOnUse"
       x2="81.37"
       y1="-161.75"
       x1="81.37">
      <stop
         stop-color="#60d36b"
         offset="0"
         id="stop2725" />
      <stop
         stop-color="#27b43d"
         offset="1"
         id="stop2727" />
    </linearGradient>
    <linearGradient
       gradientTransform="matrix(1.25,0,0,-1.25,-95.370047,-59.908792)"
       id="g"
       y2="-229.75"
       gradientUnits="userSpaceOnUse"
       x2="81.37"
       y1="-161.75"
       x1="81.37">
      <stop
         stop-color="#60d36b"
         offset="0"
         id="stop2720" />
      <stop
         stop-color="#27b43d"
         offset="1"
         id="stop2722" />
    </linearGradient>
    <radialGradient
       id="asc"
       fx="-22.446"
       gradientUnits="userSpaceOnUse"
       cy="8.2603"
       cx="-19.78"
       gradientTransform="matrix(0,16,-13.75,-5.5063e-6,178.58,274.47)"
       r="20">
      <stop
         stop-color="#ffcd7d"
         offset="0"
         id="stop2" />
      <stop
         stop-color="#fc8f36"
         offset=".26238"
         id="stop4" />
      <stop
         stop-color="#e23a0e"
         offset=".70495"
         id="stop6" />
      <stop
         stop-color="#ac441f"
         offset="1"
         id="stop8" />
    </radialGradient>
    <radialGradient
       id="a"
       gradientUnits="userSpaceOnUse"
       cy="186.17"
       cx="99.157"
       gradientTransform="matrix(0.7201966,0,0,0.22501133,-8.1140014,64.919927)"
       r="62.769">
      <stop
         stop-color="#3d3d3d"
         offset="0"
         id="stop11" />
      <stop
         stop-color="#686868"
         stop-opacity=".49804"
         offset=".5"
         id="stop13" />
      <stop
         stop-color="#686868"
         stop-opacity="0"
         offset="1"
         id="stop15" />
    </radialGradient>
    <linearGradient
       id="d"
       y2="53.699"
       gradientUnits="userSpaceOnUse"
       x2="64.034"
       gradientTransform="translate(-2.0335064,73.299716)"
       y1="-49.85"
       x1="64.775">
      <stop
         stop-color="#fff"
         offset="0"
         id="stop18" />
      <stop
         stop-color="#fff"
         stop-opacity=".23529"
         offset=".40804"
         id="stop20" />
      <stop
         stop-color="#fff"
         stop-opacity=".15686"
         offset=".84138"
         id="stop22" />
      <stop
         stop-color="#fff"
         stop-opacity=".39216"
         offset="1"
         id="stop24" />
    </linearGradient>
    <linearGradient
       id="c"
       y2="34"
       gradientUnits="userSpaceOnUse"
       x2="70"
       y1="-33.37"
       x1="70"
       gradientTransform="translate(0,64)">
      <stop
         stop-color="#fff5ef"
         offset="0"
         id="stop27" />
      <stop
         stop-color="#fef8dd"
         offset="1"
         id="stop29" />
    </linearGradient>
    <radialGradient
       r="27.5"
       gradientTransform="matrix(0 1.3006 -1.3006 0 94.036 165.84)"
       cx="32"
       cy="4.3419"
       gradientUnits="userSpaceOnUse"
       id="a-3">
      <stop
         id="stop2380"
         offset="0"
         stop-color="#fafafa" />
      <stop
         id="stop2382"
         offset="1"
         stop-color="#e1e1e1" />
    </radialGradient>
    <radialGradient
       r="55.725"
       gradientTransform="matrix(3.8645 .00040547 1.7084e-7 3.8688 -78.822 93.571)"
       cx="27.484"
       cy="-9.0843"
       gradientUnits="userSpaceOnUse"
       xlink:href="#a-3"
       id="radialGradient12065" />
    <radialGradient
       r="55.725"
       gradientTransform="matrix(2.9895,0.0078878,-0.0073208,2.7757,-54.839,83.435)"
       cx="27.391"
       cy="-47.109"
       gradientUnits="userSpaceOnUse"
       xlink:href="#a-3"
       id="d-6" />
    <linearGradient
       x1="81.37"
       y1="-161.75"
       x2="81.37"
       gradientUnits="userSpaceOnUse"
       y2="-229.75"
       id="g-9-3"
       gradientTransform="matrix(1.25,0,0,-1.25,-95.370047,-59.908792)">
      <stop
         id="stop2387"
         offset="0"
         stop-color="#60d36b" />
      <stop
         id="stop2389"
         offset="1"
         stop-color="#27b43d" />
    </linearGradient>
    <linearGradient
       x1="81.37"
       y1="-154.15"
       gradientTransform="matrix(1.617,0,0,1.617,-248.4042,149.00794)"
       x2="81.37"
       gradientUnits="userSpaceOnUse"
       y2="-237.35"
       id="f">
      <stop
         id="stop2392"
         offset="0"
         stop-color="#fff" />
      <stop
         id="stop2394"
         offset=".42448"
         stop-opacity=".23529"
         stop-color="#fff" />
      <stop
         id="stop2396"
         offset=".8209"
         stop-opacity=".15686"
         stop-color="#fff" />
      <stop
         id="stop2398"
         offset="1"
         stop-opacity=".39216"
         stop-color="#fff" />
    </linearGradient>
    <linearGradient
       x1="81.37"
       y1="-237.35"
       gradientTransform="matrix(0.8075,0,0,-0.8337375,-10.9317,-339.89206)"
       x2="81.37"
       gradientUnits="userSpaceOnUse"
       y2="-154.15"
       id="e">
      <stop
         id="stop2401"
         offset="0"
         stop-opacity=".32174" />
      <stop
         id="stop2403"
         offset="1"
         stop-opacity=".27826" />
    </linearGradient>
    <radialGradient
       r="42.272"
       gradientTransform="matrix(2.391375,-1.257125e-8,-1.29325e-8,-2.46025,-277.1967,-275.26705)"
       cx="81.37"
       cy="-154.17"
       gradientUnits="userSpaceOnUse"
       xlink:href="#a-3"
       id="c-7" />
    <radialGradient
       r="62.769"
       gradientTransform="matrix(0.6869375,0,0,0.2146125,-151.12795,158.10794)"
       cx="99.157"
       cy="186.17"
       gradientUnits="userSpaceOnUse"
       id="b">
      <stop
         id="stop2407"
         offset="0"
         stop-color="#3d3d3d" />
      <stop
         id="stop2409"
         offset=".5"
         stop-opacity=".49804"
         stop-color="#686868" />
      <stop
         id="stop2411"
         offset="1"
         stop-opacity="0"
         stop-color="#686868" />
    </radialGradient>
    <radialGradient
       r="20"
       gradientTransform="matrix(-1.1206e-7 3.75 -4.25 -2.503e-7 100.11 -25.612)"
       cx="6.5633"
       cy="8.2603"
       gradientUnits="userSpaceOnUse"
       fx="-9.205"
       id="b-1">
      <stop
         id="stop2638"
         offset="0"
         stop-color="#b1e198" />
      <stop
         id="stop2640"
         offset=".30769"
         stop-color="#71c586" />
      <stop
         id="stop2642"
         offset=".65385"
         stop-color="#04a171" />
      <stop
         id="stop2644"
         offset="1"
         stop-color="#108562" />
    </radialGradient>
    <radialGradient
       r="62.769"
       gradientTransform="matrix(1 0 0 .16667 0 155.14)"
       cx="99.157"
       cy="186.17"
       gradientUnits="userSpaceOnUse"
       id="a-2">
      <stop
         id="stop2647"
         offset="0"
         stop-color="#3d3d3d" />
      <stop
         id="stop2649"
         offset=".5"
         stop-opacity=".49804"
         stop-color="#686868" />
      <stop
         id="stop2651"
         offset="1"
         stop-opacity="0"
         stop-color="#686868" />
    </radialGradient>
    <linearGradient
       x1="64.775"
       y1="-49.85"
       gradientTransform="translate(-746.27014,-29.52858)"
       x2="64.034"
       gradientUnits="userSpaceOnUse"
       y2="53.699"
       id="d-7">
      <stop
         id="stop2654"
         offset="0"
         stop-color="#fff" />
      <stop
         id="stop2656"
         offset=".40804"
         stop-opacity=".23529"
         stop-color="#fff" />
      <stop
         id="stop2658"
         offset=".84138"
         stop-opacity=".15686"
         stop-color="#fff" />
      <stop
         id="stop2660"
         offset="1"
         stop-opacity=".39216"
         stop-color="#fff" />
    </linearGradient>
    <linearGradient
       x1="65"
       y1="-36"
       x2="65"
       gradientUnits="userSpaceOnUse"
       y2="39"
       id="c-0">
      <stop
         id="stop2663"
         offset="0"
         stop-color="#fff" />
      <stop
         id="stop2665"
         offset="1"
         stop-color="#cee7dd" />
    </linearGradient>
    <linearGradient
       id="linearGradient4246">
      <stop
         offset="0"
         style="stop-color:#ffffff;stop-opacity:1"
         id="stop4248" />
      <stop
         offset="0.23521248"
         style="stop-color:#ffffff;stop-opacity:0.23529412"
         id="stop4250" />
      <stop
         offset="0.76404774"
         style="stop-color:#ffffff;stop-opacity:0.15686275"
         id="stop4252" />
      <stop
         offset="1"
         style="stop-color:#ffffff;stop-opacity:0.39215687"
         id="stop4254" />
    </linearGradient>
    <linearGradient
       id="linearGradient3242-7-3-8-9-0-2">
      <stop
         offset="0"
         style="stop-color:#eef87e;stop-opacity:1"
         id="stop3244-5-8-5-3-4-4" />
      <stop
         offset="0.26238"
         style="stop-color:#cde34f;stop-opacity:1"
         id="stop3246-9-5-1-2-5-3" />
      <stop
         offset="0.66093999"
         style="stop-color:#93b723;stop-opacity:1"
         id="stop3248-7-2-0-84-2-0" />
      <stop
         offset="1"
         style="stop-color:#5a7e0d;stop-opacity:1"
         id="stop3250-8-2-8-3-3-4" />
    </linearGradient>
    <radialGradient
       gradientTransform="matrix(0.8232,0.2312,0.2703,-0.9626,-96.2274,-315.3433)"
       gradientUnits="userSpaceOnUse"
       id="XMLID_2_-8"
       fy="-289.9133"
       fx="297.44989"
       r="17.1528"
       cy="-290.5918"
       cx="299.44821">
      <stop
         offset="0"
         style="stop-color:#000000;stop-opacity:1"
         id="stop228-2" />
      <stop
         offset="1"
         style="stop-color:#000000;stop-opacity:0"
         id="stop230-7" />
    </radialGradient>
    <linearGradient
       id="linearGradient2867-449-88-871-390-598-476-591-434-148-57-177-3-8-6">
      <stop
         offset="0"
         style="stop-color:#a4a4a4;stop-opacity:1;"
         id="stop3750-8-9-0" />
      <stop
         offset="0.26238"
         style="stop-color:#969696;stop-opacity:1;"
         id="stop3752-3-2-8" />
      <stop
         offset="0.704952"
         style="stop-color:#8e8e8e;stop-opacity:1;"
         id="stop3754-7-2-7" />
      <stop
         offset="1"
         style="stop-color:#666666;stop-opacity:1;"
         id="stop3756-9-3-6" />
    </linearGradient>
    <linearGradient
       id="linearGradient3820-7-2-8-6">
      <stop
         offset="0"
         style="stop-color:#3d3d3d;stop-opacity:1"
         id="stop3822-2-6-5-0" />
      <stop
         offset="0.5"
         style="stop-color:#686868;stop-opacity:0.49803922"
         id="stop3864-8-7-4-1" />
      <stop
         offset="1"
         style="stop-color:#686868;stop-opacity:0"
         id="stop3824-1-2-6-7" />
    </linearGradient>
    <linearGradient
       gradientTransform="matrix(2.7567564,0,0,2.7567564,-133.25186,-67.905563)"
       gradientUnits="userSpaceOnUse"
       xlink:href="#linearGradient4246"
       id="linearGradient5267"
       y2="44.00914"
       x2="71.204407"
       y1="6.8949885"
       x1="71.204407" />
    <radialGradient
       gradientTransform="matrix(0,3.5027864,-3.3090405,-4.0448548e-8,92.459105,-62.015358)"
       gradientUnits="userSpaceOnUse"
       xlink:href="#linearGradient3242-7-3-8-9-0-2"
       id="radialGradient5270"
       fy="8.5985041"
       fx="8.894803"
       r="19.99999"
       cy="8.449769"
       cx="18.164446" />
    <linearGradient
       gradientTransform="matrix(0.17796026,0,0,0.14954125,216.71264,-67.15218)"
       gradientUnits="userSpaceOnUse"
       xlink:href="#XMLID_2_-8"
       id="linearGradient5275"
       y2="375.61926"
       x2="-474.68497"
       y1="539.40955"
       x1="-1085.9586" />
    <radialGradient
       gradientTransform="matrix(-1.7030133e-7,2.7986346,-2.6367191,-1.9276587e-7,86.77997,-49.34197)"
       gradientUnits="userSpaceOnUse"
       xlink:href="#linearGradient2867-449-88-871-390-598-476-591-434-148-57-177-3-8"
       id="radialGradient5279"
       fy="8.44977"
       fx="-0.12323578"
       r="19.99999"
       cy="8.449769"
       cx="15.645058" />
    <radialGradient
       gradientTransform="matrix(1,0,0,0.1666667,0,155.14216)"
       gradientUnits="userSpaceOnUse"
       xlink:href="#linearGradient3820-7-2-8-6"
       id="radialGradient5282"
       fy="186.17059"
       fx="99.157013"
       r="62.769119"
       cy="186.17059"
       cx="99.157013" />
    <radialGradient
       gradientTransform="matrix(1,0,0,0.1666667,0,155.14216)"
       gradientUnits="userSpaceOnUse"
       xlink:href="#linearGradient3820-7-2-8-6"
       id="radialGradient5015"
       fy="186.17059"
       fx="99.157013"
       r="62.769119"
       cy="186.17059"
       cx="99.157013" />
    <radialGradient
       gradientTransform="matrix(-9.6613255e-8,1.5876869,-1.495831,-1.0935756e-7,44.6396,2.8743392)"
       gradientUnits="userSpaceOnUse"
       xlink:href="#linearGradient2867-449-88-871-390-598-476-591-434-148-57-177-3-8"
       id="radialGradient5007"
       fy="8.44977"
       fx="-0.22334664"
       r="19.99999"
       cy="8.449769"
       cx="15.645058" />
    <linearGradient
       id="linearGradient2867-449-88-871-390-598-476-591-434-148-57-177-3-8">
      <stop
         offset="0"
         style="stop-color:#8de53e;stop-opacity:1;"
         id="stop3750-8-9" />
      <stop
         offset="0.26238"
         style="stop-color:#95de55;stop-opacity:1;"
         id="stop3752-3-2" />
      <stop
         offset="0.704952"
         style="stop-color:#82de31;stop-opacity:1;"
         id="stop3754-7-2" />
      <stop
         offset="1"
         style="stop-color:#60cc00;stop-opacity:1;"
         id="stop3756-9-3" />
    </linearGradient>
    <linearGradient
       gradientUnits="userSpaceOnUse"
       y2="61.889656"
       x2="31.972326"
       y1="3.8841453"
       x1="31.972326"
       id="linearGradient3796"
       xlink:href="#linearGradient4806"
       inkscape:collect="always" />
    <linearGradient
       id="linearGradient4806">
      <stop
         offset="0"
         style="stop-color:#ffffff;stop-opacity:1"
         id="stop4808" />
      <stop
         offset="0.42447853"
         style="stop-color:#ffffff;stop-opacity:0.23529412"
         id="stop4810" />
      <stop
         offset="0.82089913"
         style="stop-color:#ffffff;stop-opacity:0.15686275"
         id="stop4812" />
      <stop
         offset="1"
         style="stop-color:#ffffff;stop-opacity:0.39215687"
         id="stop4814" />
    </linearGradient>
    <radialGradient
       r="20"
       gradientTransform="matrix(0,16,-13.75,-5.5063e-6,27.384918,278.53991)"
       cx="-19.78"
       cy="8.2603"
       gradientUnits="userSpaceOnUse"
       fx="-22.446"
       id="b-6">
      <stop
         id="stop1131"
         offset="0"
         stop-color="#ffcd7d" />
      <stop
         id="stop1133"
         offset=".26238"
         stop-color="#fc8f36" />
      <stop
         id="stop1135"
         offset=".70495"
         stop-color="#e23a0e" />
      <stop
         id="stop1137"
         offset="1"
         stop-color="#ac441f" />
    </radialGradient>
    <radialGradient
       r="62.769"
       gradientTransform="matrix(0.68694,0,0,0.21462096,-750.29184,-24.454802)"
       cx="99.157"
       cy="186.17"
       gradientUnits="userSpaceOnUse"
       id="a-7">
      <stop
         id="stop1140"
         offset="0"
         stop-color="#3d3d3d" />
      <stop
         id="stop1142"
         offset=".5"
         stop-opacity=".49804"
         stop-color="#686868" />
      <stop
         id="stop1144"
         offset="1"
         stop-opacity="0"
         stop-color="#686868" />
    </radialGradient>
    <linearGradient
       x1="70"
       y1="-33.37"
       x2="70"
       gradientUnits="userSpaceOnUse"
       y2="34"
       id="c-3"
       gradientTransform="translate(-659.57506,52.118019)">
      <stop
         id="stop1156"
         offset="0"
         stop-color="#fff5ef" />
      <stop
         id="stop1158"
         offset="1"
         stop-color="#fef8dd" />
    </linearGradient>
    <mask
       maskUnits="userSpaceOnUse"
       id="mask1037">
      <path
         style="color:#000000;opacity:1;fill:#ffffff;fill-opacity:1;stroke:none;stroke-width:1.04841256;stroke-opacity:1"
         d="m 63.725017,7.7019898 c -30.081056,0 -54.517458,24.4364022 -54.517458,54.5174592 0,30.081055 24.436402,54.517461 54.517458,54.517461 30.081057,0 54.517463,-24.436406 54.517463,-54.517461 0,-30.081057 -24.436406,-54.5174592 -54.517463,-54.5174592 z"
         id="path1039"
         inkscape:connector-curvature="0" />
    </mask>
    <mask
       id="mask8136"
       maskUnits="userSpaceOnUse">
      <path
         d="m 196.6137,13.068662 c -30.57554,0 -55.59189,24.883601 -55.59189,55.296896 0,30.413291 25.01635,55.296892 55.59189,55.296892 30.57553,0 55.59189,-24.883601 55.59189,-55.296892 0,-30.413295 -24.7384,-55.296896 -55.59189,-55.296896"
         id="path8138"
         inkscape:connector-curvature="0"
         style="clip-rule:evenodd;display:inline;fill:#ffffff;fill-opacity:1;fill-rule:evenodd;stroke:none;stroke-width:2;stroke-miterlimit:4;stroke-dasharray:none;stroke-opacity:0.68208092"
         sodipodi:nodetypes="csssc" />
    </mask>
    <mask
       maskUnits="userSpaceOnUse"
       id="mask3664">
      <path
         style="color:#000000;display:inline;opacity:1;fill:#ffffff;fill-opacity:1;stroke:none;stroke-width:1.04841256;stroke-opacity:1"
         d="m 63.725017,7.7019898 c -30.081056,0 -54.517458,24.4364022 -54.517458,54.5174592 0,30.081055 24.436402,54.517461 54.517458,54.517461 30.081057,0 54.517463,-24.436406 54.517463,-54.517461 0,-30.081057 -24.436406,-54.5174592 -54.517463,-54.5174592 z"
         id="path3666"
         inkscape:connector-curvature="0" />
    </mask>
    <mask
       maskUnits="userSpaceOnUse"
       id="mask3668">
      <path
         style="color:#000000;display:inline;opacity:1;fill:#ffffff;fill-opacity:1;stroke:none;stroke-width:1.04841256;stroke-opacity:1"
         d="m 63.725017,7.7019898 c -30.081056,0 -54.517458,24.4364022 -54.517458,54.5174592 0,30.081055 24.436402,54.517461 54.517458,54.517461 30.081057,0 54.517463,-24.436406 54.517463,-54.517461 0,-30.081057 -24.436406,-54.5174592 -54.517463,-54.5174592 z"
         id="path3670"
         inkscape:connector-curvature="0" />
    </mask>
    <mask
       maskUnits="userSpaceOnUse"
       id="mask3672">
      <path
         style="color:#000000;display:inline;opacity:1;fill:#ffffff;fill-opacity:1;stroke:none;stroke-width:1.04841256;stroke-opacity:1"
         d="m 63.725017,7.7019898 c -30.081056,0 -54.517458,24.4364022 -54.517458,54.5174592 0,30.081055 24.436402,54.517461 54.517458,54.517461 30.081057,0 54.517463,-24.436406 54.517463,-54.517461 0,-30.081057 -24.436406,-54.5174592 -54.517463,-54.5174592 z"
         id="path3674"
         inkscape:connector-curvature="0" />
    </mask>
    <mask
       maskUnits="userSpaceOnUse"
       id="mask3680">
      <path
         style="color:#000000;display:inline;opacity:1;fill:#ffffff;fill-opacity:1;stroke:none;stroke-width:1.04841256;stroke-opacity:1"
         d="m 63.725017,7.7019898 c -30.081056,0 -54.517458,24.4364022 -54.517458,54.5174592 0,30.081055 24.436402,54.517461 54.517458,54.517461 30.081057,0 54.517463,-24.436406 54.517463,-54.517461 0,-30.081057 -24.436406,-54.5174592 -54.517463,-54.5174592 z"
         id="path3682"
         inkscape:connector-curvature="0" />
    </mask>
    <mask
       maskUnits="userSpaceOnUse"
       id="mask3743">
      <path
         inkscape:connector-curvature="0"
         id="path3745"
         d="m 63.72502,7.7019898 c -30.081059,0 -54.5174615,24.4364022 -54.5174615,54.5174592 0,30.081055 24.4364025,54.517461 54.5174615,54.517461 30.08105,0 54.51746,-24.436406 54.51746,-54.517461 0,-30.081057 -24.436409,-54.5174592 -54.51746,-54.5174592 z"
         style="color:#000000;display:inline;opacity:1;fill:#ffffff;fill-opacity:1;stroke:none;stroke-width:1.04841256;stroke-opacity:1" />
    </mask>
    <mask
       maskUnits="userSpaceOnUse"
       id="mask3747">
      <path
         inkscape:connector-curvature="0"
         id="path3749"
         d="m 63.72502,7.7019898 c -30.081059,0 -54.5174615,24.4364022 -54.5174615,54.5174592 0,30.081055 24.4364025,54.517461 54.5174615,54.517461 30.08105,0 54.51746,-24.436406 54.51746,-54.517461 0,-30.081057 -24.436409,-54.5174592 -54.51746,-54.5174592 z"
         style="color:#000000;display:inline;opacity:1;fill:#ffffff;fill-opacity:1;stroke:none;stroke-width:1.04841256;stroke-opacity:1" />
    </mask>
    <mask
       maskUnits="userSpaceOnUse"
       id="mask3751">
      <path
         inkscape:connector-curvature="0"
         id="path3753"
         d="m 63.72502,7.7019898 c -30.081059,0 -54.5174615,24.4364022 -54.5174615,54.5174592 0,30.081055 24.4364025,54.517461 54.5174615,54.517461 30.08105,0 54.51746,-24.436406 54.51746,-54.517461 0,-30.081057 -24.436409,-54.5174592 -54.51746,-54.5174592 z"
         style="color:#000000;display:inline;opacity:1;fill:#ffffff;fill-opacity:1;stroke:none;stroke-width:1.04841256;stroke-opacity:1" />
    </mask>
    <linearGradient
       inkscape:collect="always"
       xlink:href="#linearGradient9093"
       id="linearGradient9097"
       gradientUnits="userSpaceOnUse"
       x1="-0.51491898"
       y1="108.96708"
       x2="0.72775716"
       y2="22.731783"
       gradientTransform="translate(70.045166)" />
    <mask
       maskUnits="userSpaceOnUse"
       id="mask9105">
      <path
         sodipodi:nodetypes="sscscsccssccsccccccssssssss"
         inkscape:connector-curvature="0"
         style="clip-rule:evenodd;display:inline;fill:#fafafa;fill-opacity:0.98843934;fill-rule:evenodd;stroke:none;stroke-width:1.12300003;stroke-miterlimit:4;stroke-dasharray:none;stroke-opacity:1"
         d="m 86.822209,23.475173 c -3.189094,0 -5.774244,2.585472 -5.774244,5.774567 v 20.210177 c 0,-3.189094 -2.585472,-5.774244 -5.774244,-5.774244 -3.189416,0 -5.774243,2.58515 -5.774243,5.774244 0,-3.189094 -2.585796,-5.774244 -5.774567,-5.774244 -3.188771,0 -5.774244,2.58515 -5.774244,5.774244 V 26.362295 c -3.23e-4,-3.18877 -2.585795,-5.774244 -5.774889,-5.774244 -3.188772,0 -5.774244,2.585474 -5.774244,5.774244 v 40.420676 c 0,0 -7.372687,-6.635986 -14.097045,-6.635986 -4.942854,-6.46e-4 -5.774244,2.141548 -5.774244,5.774243 0,2.849053 3.6603,1.187759 9.764584,10.472105 3.529781,5.369034 3.483052,4.759966 4.978221,6.147008 0.972698,0.916884 2.578698,2.149936 4.555066,3.352016 0.105492,0.09807 0.250998,0.191636 0.45812,0.280357 0.246158,0.107106 0.413921,0.236157 0.642012,0.347461 0.357141,0.200024 0.708796,0.396177 1.082711,0.587489 3.913053,2.67742 4.164819,10.562468 4.164819,12.699178 0,4.324058 1.366293,5.774558 5.661972,5.774558 h 23.210215 c 4.115335,0 5.774244,-1.72118 5.774244,-5.774558 v -4.15233 c 0,-4.668302 5.774244,-17.909252 5.774244,-31.758985 V 29.24974 c 0,-3.189416 -2.58515,-5.774567 -5.774244,-5.774567 z"
         id="path9107" />
    </mask>
  </defs>
  <g
     inkscape:groupmode="layer"
     id="layer1"
     inkscape:label="Layer 1" />
  <g
     inkscape:groupmode="layer"
     id="layer2"
     inkscape:label="Layer 2"
     style="display:inline" />
  <g
     inkscape:groupmode="layer"
     id="layer4"
     inkscape:label="Layer 4"
     style="display:inline"
     sodipodi:insensitive="true">
    <path
       id="path8896"
       style="opacity:1;fill:#ed5353;fill-opacity:1;fill-rule:evenodd;stroke:none;stroke-width:1.13496482;stroke-linecap:round;stroke-linejoin:round;stroke-miterlimit:4;stroke-dasharray:none;stroke-dashoffset:0;stroke-opacity:0.27745667;paint-order:markers fill stroke"
       d="m 13.91647,104.23995 c 0,0 3.99182,0 7.98364,0 3.99183,0 7.98365,0 7.98365,0 0,0 0,11.16594 0,11.16594 0,0 -15.96729,0 -15.96729,0 0,0 0,-11.16594 0,-11.16594"
       inkscape:connector-curvature="0" />
    <path
       id="path8898"
       style="opacity:1;fill:#ed5353;fill-opacity:1;fill-rule:evenodd;stroke:none;stroke-width:1.13496482;stroke-linecap:round;stroke-linejoin:round;stroke-miterlimit:4;stroke-dasharray:none;stroke-dashoffset:0;stroke-opacity:0.27745667;paint-order:markers fill stroke"
       d="m 13.91647,104.23995 c 0,0 3.99182,0 7.98364,0 3.99183,0 7.98365,0 7.98365,0 0,0 0,11.16594 0,11.16594 0,0 -15.96729,0 -15.96729,0 0,0 0,-11.16594 0,-11.16594"
       inkscape:connector-curvature="0" />
    <path
       inkscape:connector-curvature="0"
       id="path8902"
       style="opacity:1;fill:#ed5353;fill-opacity:1;fill-rule:evenodd;stroke:none;stroke-width:1.13496482;stroke-linecap:round;stroke-linejoin:round;stroke-miterlimit:4;stroke-dasharray:none;stroke-dashoffset:0;stroke-opacity:0.27745667;paint-order:markers fill stroke"
       d="m 13.91647,104.23995 c 0,0 3.99182,0 7.98364,0 3.99183,0 7.98365,0 7.98365,0 0,0 0,11.16594 0,11.16594 0,0 -15.96729,0 -15.96729,0 0,0 0,-11.16594 0,-11.16594" />
    <path
       inkscape:connector-curvature="0"
       id="path8904"
       style="opacity:1;fill:#ee6464;fill-opacity:1;fill-rule:evenodd;stroke:none;stroke-width:1.13496482;stroke-linecap:round;stroke-linejoin:round;stroke-miterlimit:4;stroke-dasharray:none;stroke-dashoffset:0;stroke-opacity:0.27745667;paint-order:markers fill stroke"
       d="m 13.91647,89.47923 c 0,0 5.2692,0 8.83523,0 3.56603,0 7.13206,0 7.13206,0 0,0 0,11.16594 0,11.16594 0,0 -15.96729,0 -15.96729,0 0,0 0,-11.16594 0,-11.16594" />
    <path
       inkscape:connector-curvature="0"
       id="path8906"
       style="opacity:1;fill:#ef7676;fill-opacity:1;fill-rule:evenodd;stroke:none;stroke-width:1.13496482;stroke-linecap:round;stroke-linejoin:round;stroke-miterlimit:4;stroke-dasharray:none;stroke-dashoffset:0;stroke-opacity:0.27745667;paint-order:markers fill stroke"
       d="m 13.91647,74.718509 c 0,0 6.54659,0 9.68682,0 3.14024,0 6.28047,0 6.28047,0 0,0 0,11.16594 0,11.16594 0,0 -15.96729,0 -15.96729,0 0,0 0,-11.16594 0,-11.16594" />
    <path
       inkscape:connector-curvature="0"
       id="path8908"
       style="opacity:1;fill:#f18888;fill-opacity:1;fill-rule:evenodd;stroke:none;stroke-width:1.13496482;stroke-linecap:round;stroke-linejoin:round;stroke-miterlimit:4;stroke-dasharray:none;stroke-dashoffset:0;stroke-opacity:0.27745667;paint-order:markers fill stroke"
       d="m 13.91647,59.957789 c 0,0 7.82397,0 10.53841,0 2.71444,0 5.42888,0 5.42888,0 0,0 0,11.16594 0,11.16594 0,0 -15.96729,0 -15.96729,0 0,0 0,-11.16594 0,-11.16594" />
    <path
       inkscape:connector-curvature="0"
       id="path8910"
       style="opacity:1;fill:#f29999;fill-opacity:1;fill-rule:evenodd;stroke:none;stroke-width:1.13496482;stroke-linecap:round;stroke-linejoin:round;stroke-miterlimit:4;stroke-dasharray:none;stroke-dashoffset:0;stroke-opacity:0.27745667;paint-order:markers fill stroke"
       d="m 13.91647,45.197069 c 0,0 9.10135,0 11.39,0 2.28864,0 4.57729,0 4.57729,0 0,0 0,11.16594 0,11.16594 0,0 -15.96729,0 -15.96729,0 0,0 0,-11.16594 0,-11.16594" />
    <path
       inkscape:connector-curvature="0"
       d="m 97.445877,104.23995 c 0,0 3.991823,0 7.983643,0 3.99183,0 7.98365,0 7.98365,0 0,0 0,11.16594 0,11.16594 0,0 -15.967293,0 -15.967293,0 0,0 0,-11.16594 0,-11.16594"
       style="opacity:1;fill:#ed5353;fill-opacity:1;fill-rule:evenodd;stroke:none;stroke-width:1.13496482;stroke-linecap:round;stroke-linejoin:round;stroke-miterlimit:4;stroke-dasharray:none;stroke-dashoffset:0;stroke-opacity:0.27745667;paint-order:markers fill stroke"
       id="path3453" />
    <path
       inkscape:connector-curvature="0"
       d="m 97.445877,104.23995 c 0,0 3.991823,0 7.983643,0 3.99183,0 7.98365,0 7.98365,0 0,0 0,11.16594 0,11.16594 0,0 -15.967293,0 -15.967293,0 0,0 0,-11.16594 0,-11.16594"
       style="opacity:1;fill:#ed5353;fill-opacity:1;fill-rule:evenodd;stroke:none;stroke-width:1.13496482;stroke-linecap:round;stroke-linejoin:round;stroke-miterlimit:4;stroke-dasharray:none;stroke-dashoffset:0;stroke-opacity:0.27745667;paint-order:markers fill stroke"
       id="path8407" />
    <path
       inkscape:connector-curvature="0"
       d="m 97.445877,15.675628 c 0,0 11.656123,0 13.093183,0 1.43705,0 2.87411,0 2.87411,0 0,0 0,11.16594 0,11.16594 0,0 -15.967293,0 -15.967293,0 0,0 0,-11.16594 0,-11.16594"
       style="opacity:1;fill:#f5bdbd;fill-opacity:1;fill-rule:evenodd;stroke:none;stroke-width:1.13496482;stroke-linecap:round;stroke-linejoin:round;stroke-miterlimit:4;stroke-dasharray:none;stroke-dashoffset:0;stroke-opacity:0.27745667;paint-order:markers fill stroke"
       id="path8415" />
    <path
       d="m 97.445877,104.23995 c 0,0 3.991823,0 7.983643,0 3.99183,0 7.98365,0 7.98365,0 0,0 0,11.16594 0,11.16594 0,0 -15.967293,0 -15.967293,0 0,0 0,-11.16594 0,-11.16594"
       style="opacity:1;fill:#ed5353;fill-opacity:1;fill-rule:evenodd;stroke:none;stroke-width:1.13496482;stroke-linecap:round;stroke-linejoin:round;stroke-miterlimit:4;stroke-dasharray:none;stroke-dashoffset:0;stroke-opacity:0.27745667;paint-order:markers fill stroke"
       id="path8856"
       inkscape:connector-curvature="0" />
    <path
       d="m 97.445877,89.47923 c 0,0 5.269203,0 8.835233,0 3.56603,0 7.13206,0 7.13206,0 0,0 0,11.16594 0,11.16594 0,0 -15.967293,0 -15.967293,0 0,0 0,-11.16594 0,-11.16594"
       style="opacity:1;fill:#ee6464;fill-opacity:1;fill-rule:evenodd;stroke:none;stroke-width:1.13496482;stroke-linecap:round;stroke-linejoin:round;stroke-miterlimit:4;stroke-dasharray:none;stroke-dashoffset:0;stroke-opacity:0.27745667;paint-order:markers fill stroke"
       id="path8858"
       inkscape:connector-curvature="0" />
    <path
       d="m 97.445877,74.718509 c 0,0 6.546593,0 9.686823,0 3.14024,0 6.28047,0 6.28047,0 0,0 0,11.16594 0,11.16594 0,0 -15.967293,0 -15.967293,0 0,0 0,-11.16594 0,-11.16594"
       style="opacity:1;fill:#ef7676;fill-opacity:1;fill-rule:evenodd;stroke:none;stroke-width:1.13496482;stroke-linecap:round;stroke-linejoin:round;stroke-miterlimit:4;stroke-dasharray:none;stroke-dashoffset:0;stroke-opacity:0.27745667;paint-order:markers fill stroke"
       id="path8860"
       inkscape:connector-curvature="0" />
    <path
       d="m 97.445877,59.957789 c 0,0 7.823973,0 10.538413,0 2.71444,0 5.42888,0 5.42888,0 0,0 0,11.16594 0,11.16594 0,0 -15.967293,0 -15.967293,0 0,0 0,-11.16594 0,-11.16594"
       style="opacity:1;fill:#f18888;fill-opacity:1;fill-rule:evenodd;stroke:none;stroke-width:1.13496482;stroke-linecap:round;stroke-linejoin:round;stroke-miterlimit:4;stroke-dasharray:none;stroke-dashoffset:0;stroke-opacity:0.27745667;paint-order:markers fill stroke"
       id="path8862"
       inkscape:connector-curvature="0" />
    <path
       d="m 97.445877,45.197069 c 0,0 9.101353,0 11.390003,0 2.28864,0 4.57729,0 4.57729,0 0,0 0,11.16594 0,11.16594 0,0 -15.967293,0 -15.967293,0 0,0 0,-11.16594 0,-11.16594"
       style="opacity:1;fill:#f29999;fill-opacity:1;fill-rule:evenodd;stroke:none;stroke-width:1.13496482;stroke-linecap:round;stroke-linejoin:round;stroke-miterlimit:4;stroke-dasharray:none;stroke-dashoffset:0;stroke-opacity:0.27745667;paint-order:markers fill stroke"
       id="path8864"
       inkscape:connector-curvature="0" />
    <path
       d="m 97.445877,30.436348 c 0,0 10.378743,0 12.241593,0 1.86285,0 3.7257,0 3.7257,0 0,0 0,11.16594 0,11.16594 0,0 -15.967293,0 -15.967293,0 0,0 0,-11.16594 0,-11.16594"
       style="opacity:1;fill:#f3abab;fill-opacity:1;fill-rule:evenodd;stroke:none;stroke-width:1.13496482;stroke-linecap:round;stroke-linejoin:round;stroke-miterlimit:4;stroke-dasharray:none;stroke-dashoffset:0;stroke-opacity:0.27745667;paint-order:markers fill stroke"
       id="path8866"
       inkscape:connector-curvature="0" />
    <path
       d="m 97.445877,15.675628 c 0,0 11.656123,0 13.093183,0 1.43705,0 2.87411,0 2.87411,0 0,0 0,11.16594 0,11.16594 0,0 -15.967293,0 -15.967293,0 0,0 0,-11.16594 0,-11.16594"
       style="opacity:1;fill:#f5bdbd;fill-opacity:1;fill-rule:evenodd;stroke:none;stroke-width:1.13496482;stroke-linecap:round;stroke-linejoin:round;stroke-miterlimit:4;stroke-dasharray:none;stroke-dashoffset:0;stroke-opacity:0.27745667;paint-order:markers fill stroke"
       id="path8868"
       inkscape:connector-curvature="0" />
    <path
       inkscape:connector-curvature="0"
       d="m 34.79882,104.23995 c 0,0 3.99182,0 7.98364,0 3.99183,0 7.98365,0 7.98365,0 0,0 0,11.16594 0,11.16594 0,0 -15.96729,0 -15.96729,0 0,0 0,-11.16594 0,-11.16594"
       style="opacity:1;fill:#ed5353;fill-opacity:1;fill-rule:evenodd;stroke:none;stroke-width:1.13496482;stroke-linecap:round;stroke-linejoin:round;stroke-miterlimit:4;stroke-dasharray:none;stroke-dashoffset:0;stroke-opacity:0.27745667;paint-order:markers fill stroke"
       id="path8920" />
    <path
       inkscape:connector-curvature="0"
       d="m 34.79882,104.23995 c 0,0 3.99182,0 7.98364,0 3.99183,0 7.98365,0 7.98365,0 0,0 0,11.16594 0,11.16594 0,0 -15.96729,0 -15.96729,0 0,0 0,-11.16594 0,-11.16594"
       style="opacity:1;fill:#ed5353;fill-opacity:1;fill-rule:evenodd;stroke:none;stroke-width:1.13496482;stroke-linecap:round;stroke-linejoin:round;stroke-miterlimit:4;stroke-dasharray:none;stroke-dashoffset:0;stroke-opacity:0.27745667;paint-order:markers fill stroke"
       id="path8922" />
    <path
       d="m 34.79882,104.23995 c 0,0 3.99182,0 7.98364,0 3.99183,0 7.98365,0 7.98365,0 0,0 0,11.16594 0,11.16594 0,0 -15.96729,0 -15.96729,0 0,0 0,-11.16594 0,-11.16594"
       style="opacity:1;fill:#ed5353;fill-opacity:1;fill-rule:evenodd;stroke:none;stroke-width:1.13496482;stroke-linecap:round;stroke-linejoin:round;stroke-miterlimit:4;stroke-dasharray:none;stroke-dashoffset:0;stroke-opacity:0.27745667;paint-order:markers fill stroke"
       id="path8926"
       inkscape:connector-curvature="0" />
    <path
       d="m 34.79882,89.47923 c 0,0 5.2692,0 8.83523,0 3.56603,0 7.13206,0 7.13206,0 0,0 0,11.16594 0,11.16594 0,0 -15.96729,0 -15.96729,0 0,0 0,-11.16594 0,-11.16594"
       style="opacity:1;fill:#ee6464;fill-opacity:1;fill-rule:evenodd;stroke:none;stroke-width:1.13496482;stroke-linecap:round;stroke-linejoin:round;stroke-miterlimit:4;stroke-dasharray:none;stroke-dashoffset:0;stroke-opacity:0.27745667;paint-order:markers fill stroke"
       id="path8928"
       inkscape:connector-curvature="0" />
    <path
       d="m 34.79882,74.718509 c 0,0 6.54659,0 9.68682,0 3.14024,0 6.28047,0 6.28047,0 0,0 0,11.16594 0,11.16594 0,0 -15.96729,0 -15.96729,0 0,0 0,-11.16594 0,-11.16594"
       style="opacity:1;fill:#ef7676;fill-opacity:1;fill-rule:evenodd;stroke:none;stroke-width:1.13496482;stroke-linecap:round;stroke-linejoin:round;stroke-miterlimit:4;stroke-dasharray:none;stroke-dashoffset:0;stroke-opacity:0.27745667;paint-order:markers fill stroke"
       id="path8930"
       inkscape:connector-curvature="0" />
    <path
       id="path8944"
       style="opacity:1;fill:#ed5353;fill-opacity:1;fill-rule:evenodd;stroke:none;stroke-width:1.13496482;stroke-linecap:round;stroke-linejoin:round;stroke-miterlimit:4;stroke-dasharray:none;stroke-dashoffset:0;stroke-opacity:0.27745667;paint-order:markers fill stroke"
       d="m 76.56352,104.23995 c 0,0 3.99182,0 7.98364,0 3.99183,0 7.98365,0 7.98365,0 0,0 0,11.16594 0,11.16594 0,0 -15.96729,0 -15.96729,0 0,0 0,-11.16594 0,-11.16594"
       inkscape:connector-curvature="0" />
    <path
       id="path8946"
       style="opacity:1;fill:#ed5353;fill-opacity:1;fill-rule:evenodd;stroke:none;stroke-width:1.13496482;stroke-linecap:round;stroke-linejoin:round;stroke-miterlimit:4;stroke-dasharray:none;stroke-dashoffset:0;stroke-opacity:0.27745667;paint-order:markers fill stroke"
       d="m 76.56352,104.23995 c 0,0 3.99182,0 7.98364,0 3.99183,0 7.98365,0 7.98365,0 0,0 0,11.16594 0,11.16594 0,0 -15.96729,0 -15.96729,0 0,0 0,-11.16594 0,-11.16594"
       inkscape:connector-curvature="0" />
    <path
       inkscape:connector-curvature="0"
       id="path8950"
       style="opacity:1;fill:#ed5353;fill-opacity:1;fill-rule:evenodd;stroke:none;stroke-width:1.13496482;stroke-linecap:round;stroke-linejoin:round;stroke-miterlimit:4;stroke-dasharray:none;stroke-dashoffset:0;stroke-opacity:0.27745667;paint-order:markers fill stroke"
       d="m 76.56352,104.23995 c 0,0 3.99182,0 7.98364,0 3.99183,0 7.98365,0 7.98365,0 0,0 0,11.16594 0,11.16594 0,0 -15.96729,0 -15.96729,0 0,0 0,-11.16594 0,-11.16594" />
    <path
       inkscape:connector-curvature="0"
       id="path8952"
       style="opacity:1;fill:#ee6464;fill-opacity:1;fill-rule:evenodd;stroke:none;stroke-width:1.13496482;stroke-linecap:round;stroke-linejoin:round;stroke-miterlimit:4;stroke-dasharray:none;stroke-dashoffset:0;stroke-opacity:0.27745667;paint-order:markers fill stroke"
       d="m 76.56352,89.47923 c 0,0 5.2692,0 8.83523,0 3.56603,0 7.13206,0 7.13206,0 0,0 0,11.16594 0,11.16594 0,0 -15.96729,0 -15.96729,0 0,0 0,-11.16594 0,-11.16594" />
    <path
       inkscape:connector-curvature="0"
       id="path8954"
       style="opacity:1;fill:#ef7676;fill-opacity:1;fill-rule:evenodd;stroke:none;stroke-width:1.13496482;stroke-linecap:round;stroke-linejoin:round;stroke-miterlimit:4;stroke-dasharray:none;stroke-dashoffset:0;stroke-opacity:0.27745667;paint-order:markers fill stroke"
       d="m 76.56352,74.718509 c 0,0 6.54659,0 9.68682,0 3.14024,0 6.28047,0 6.28047,0 0,0 0,11.16594 0,11.16594 0,0 -15.96729,0 -15.96729,0 0,0 0,-11.16594 0,-11.16594" />
    <path
       inkscape:connector-curvature="0"
       id="path8956"
       style="opacity:1;fill:#f18888;fill-opacity:1;fill-rule:evenodd;stroke:none;stroke-width:1.13496482;stroke-linecap:round;stroke-linejoin:round;stroke-miterlimit:4;stroke-dasharray:none;stroke-dashoffset:0;stroke-opacity:0.27745667;paint-order:markers fill stroke"
       d="m 76.56352,59.957789 c 0,0 7.82397,0 10.53841,0 2.71444,0 5.42888,0 5.42888,0 0,0 0,11.16594 0,11.16594 0,0 -15.96729,0 -15.96729,0 0,0 0,-11.16594 0,-11.16594" />
    <path
       inkscape:connector-curvature="0"
       id="path8958"
       style="opacity:1;fill:#f29999;fill-opacity:1;fill-rule:evenodd;stroke:none;stroke-width:1.13496482;stroke-linecap:round;stroke-linejoin:round;stroke-miterlimit:4;stroke-dasharray:none;stroke-dashoffset:0;stroke-opacity:0.27745667;paint-order:markers fill stroke"
       d="m 76.56352,45.197069 c 0,0 9.10135,0 11.39,0 2.28864,0 4.57729,0 4.57729,0 0,0 0,11.16594 0,11.16594 0,0 -15.96729,0 -15.96729,0 0,0 0,-11.16594 0,-11.16594" />
    <path
       inkscape:connector-curvature="0"
       d="m 55.68118,104.23995 c 0,0 3.99182,0 7.98364,0 3.99183,0 7.98365,0 7.98365,0 0,0 0,11.16594 0,11.16594 0,0 -15.96729,0 -15.96729,0 0,0 0,-11.16594 0,-11.16594"
       style="opacity:1;fill:#ed5353;fill-opacity:1;fill-rule:evenodd;stroke:none;stroke-width:1.13496482;stroke-linecap:round;stroke-linejoin:round;stroke-miterlimit:4;stroke-dasharray:none;stroke-dashoffset:0;stroke-opacity:0.27745667;paint-order:markers fill stroke"
       id="path8968" />
    <path
       inkscape:connector-curvature="0"
       d="m 55.68118,104.23995 c 0,0 3.99182,0 7.98364,0 3.99183,0 7.98365,0 7.98365,0 0,0 0,11.16594 0,11.16594 0,0 -15.96729,0 -15.96729,0 0,0 0,-11.16594 0,-11.16594"
       style="opacity:1;fill:#ed5353;fill-opacity:1;fill-rule:evenodd;stroke:none;stroke-width:1.13496482;stroke-linecap:round;stroke-linejoin:round;stroke-miterlimit:4;stroke-dasharray:none;stroke-dashoffset:0;stroke-opacity:0.27745667;paint-order:markers fill stroke"
       id="path8970" />
    <path
       d="m 55.68118,104.23995 c 0,0 3.99182,0 7.98364,0 3.99183,0 7.98365,0 7.98365,0 0,0 0,11.16594 0,11.16594 0,0 -15.96729,0 -15.96729,0 0,0 0,-11.16594 0,-11.16594"
       style="opacity:1;fill:#ed5353;fill-opacity:1;fill-rule:evenodd;stroke:none;stroke-width:1.13496482;stroke-linecap:round;stroke-linejoin:round;stroke-miterlimit:4;stroke-dasharray:none;stroke-dashoffset:0;stroke-opacity:0.27745667;paint-order:markers fill stroke"
       id="path8974"
       inkscape:connector-curvature="0" />
    <path
       d="m 55.68118,89.47923 c 0,0 5.2692,0 8.83523,0 3.56603,0 7.13206,0 7.13206,0 0,0 0,11.16594 0,11.16594 0,0 -15.96729,0 -15.96729,0 0,0 0,-11.16594 0,-11.16594"
       style="opacity:1;fill:#ee6464;fill-opacity:1;fill-rule:evenodd;stroke:none;stroke-width:1.13496482;stroke-linecap:round;stroke-linejoin:round;stroke-miterlimit:4;stroke-dasharray:none;stroke-dashoffset:0;stroke-opacity:0.27745667;paint-order:markers fill stroke"
       id="path8976"
       inkscape:connector-curvature="0" />
    <path
       d="m 55.68118,74.718509 c 0,0 6.54659,0 9.68682,0 3.14024,0 6.28047,0 6.28047,0 0,0 0,11.16594 0,11.16594 0,0 -15.96729,0 -15.96729,0 0,0 0,-11.16594 0,-11.16594"
       style="opacity:1;fill:#ef7676;fill-opacity:1;fill-rule:evenodd;stroke:none;stroke-width:1.13496482;stroke-linecap:round;stroke-linejoin:round;stroke-miterlimit:4;stroke-dasharray:none;stroke-dashoffset:0;stroke-opacity:0.27745667;paint-order:markers fill stroke"
       id="path8978"
       inkscape:connector-curvature="0" />
    <path
       d="m 55.68118,59.957789 c 0,0 7.82397,0 10.53841,0 2.71444,0 5.42888,0 5.42888,0 0,0 0,11.16594 0,11.16594 0,0 -15.96729,0 -15.96729,0 0,0 0,-11.16594 0,-11.16594"
       style="opacity:1;fill:#f18888;fill-opacity:1;fill-rule:evenodd;stroke:none;stroke-width:1.13496482;stroke-linecap:round;stroke-linejoin:round;stroke-miterlimit:4;stroke-dasharray:none;stroke-dashoffset:0;stroke-opacity:0.27745667;paint-order:markers fill stroke"
       id="path8980"
       inkscape:connector-curvature="0" />
  </g>
  <g
     inkscape:groupmode="layer"
     id="layer3"
     inkscape:label="Layer 3"
     style="display:inline">
    <path
       sodipodi:nodetypes="sscscsccssccsccccccssssssss"
       inkscape:connector-curvature="0"
       style="clip-rule:evenodd;display:inline;fill:none;fill-opacity:0.98843934;fill-rule:evenodd;stroke:#ed5353;stroke-width:1;stroke-miterlimit:4;stroke-dasharray:none;stroke-opacity:0.51445085"
       d="m 86.822209,23.475173 c -3.189094,0 -5.774244,2.585472 -5.774244,5.774567 v 20.210177 c 0,-3.189094 -2.585472,-5.774244 -5.774244,-5.774244 -3.189416,0 -5.774243,2.58515 -5.774243,5.774244 0,-3.189094 -2.585796,-5.774244 -5.774567,-5.774244 -3.188771,0 -5.774244,2.58515 -5.774244,5.774244 V 26.362295 c -3.23e-4,-3.18877 -2.585795,-5.774244 -5.774889,-5.774244 -3.188772,0 -5.774244,2.585474 -5.774244,5.774244 v 40.420676 c 0,0 -7.372687,-6.635986 -14.097045,-6.635986 -4.942854,-6.46e-4 -5.774244,2.141548 -5.774244,5.774243 0,2.849053 3.6603,1.187759 9.764584,10.472105 3.529781,5.369034 3.483052,4.759966 4.978221,6.147008 0.972698,0.916884 2.578698,2.149936 4.555066,3.352016 0.105492,0.09807 0.250998,0.191636 0.45812,0.280357 0.246158,0.107106 0.413921,0.236157 0.642012,0.347461 0.357141,0.200024 0.708796,0.396177 1.082711,0.587489 3.913053,2.67742 4.164819,10.562468 4.164819,12.699178 0,4.324058 1.366293,5.774558 5.661972,5.774558 h 23.210215 c 4.115335,0 5.774244,-1.72118 5.774244,-5.774558 v -4.15233 c 0,-4.668302 5.774244,-17.909252 5.774244,-31.758985 V 29.24974 c 0,-3.189416 -2.58515,-5.774567 -5.774244,-5.774567 z"
       id="path9109" />
    <path
       id="path9087"
       d="m 86.822209,23.475173 c -3.189094,0 -5.774244,2.585472 -5.774244,5.774567 v 20.210177 c 0,-3.189094 -2.585472,-5.774244 -5.774244,-5.774244 -3.189416,0 -5.774243,2.58515 -5.774243,5.774244 0,-3.189094 -2.585796,-5.774244 -5.774567,-5.774244 -3.188771,0 -5.774244,2.58515 -5.774244,5.774244 V 26.362295 c -3.23e-4,-3.18877 -2.585795,-5.774244 -5.774889,-5.774244 -3.188772,0 -5.774244,2.585474 -5.774244,5.774244 v 40.420676 c 0,0 -7.372687,-6.635986 -14.097045,-6.635986 -4.942854,-6.46e-4 -5.774244,2.141548 -5.774244,5.774243 0,2.849053 3.6603,1.187759 9.764584,10.472105 3.529781,5.369034 3.483052,4.759966 4.978221,6.147008 0.972698,0.916884 2.578698,2.149936 4.555066,3.352016 0.105492,0.09807 0.250998,0.191636 0.45812,0.280357 0.246158,0.107106 0.413921,0.236157 0.642012,0.347461 0.357141,0.200024 0.708796,0.396177 1.082711,0.587489 3.913053,2.67742 4.164819,10.562468 4.164819,12.699178 0,4.324058 1.366293,5.774558 5.661972,5.774558 h 23.210215 c 4.115335,0 5.774244,-1.72118 5.774244,-5.774558 v -4.15233 c 0,-4.668302 5.774244,-17.909252 5.774244,-31.758985 V 29.24974 c 0,-3.189416 -2.58515,-5.774567 -5.774244,-5.774567 z"
       style="clip-rule:evenodd;display:inline;fill:#fafafa;fill-opacity:0.98843934;fill-rule:evenodd;stroke:none;stroke-width:1;stroke-miterlimit:4;stroke-dasharray:none;stroke-opacity:0.61271673"
       inkscape:connector-curvature="0"
       sodipodi:nodetypes="sscscsccssccsccccccssssssss" />
    <path
       id="path1942"
       d="m 86.822209,23.475173 c -3.189094,0 -5.774244,2.585472 -5.774244,5.774567 v 20.210177 c 0,-3.189094 -2.585472,-5.774244 -5.774244,-5.774244 -3.189416,0 -5.774243,2.58515 -5.774243,5.774244 0,-3.189094 -2.585796,-5.774244 -5.774567,-5.774244 -3.188771,0 -5.774244,2.58515 -5.774244,5.774244 V 26.362295 c -3.23e-4,-3.18877 -2.585795,-5.774244 -5.774889,-5.774244 -3.188772,0 -5.774244,2.585474 -5.774244,5.774244 v 40.420676 c 0,0 -7.372687,-6.635986 -14.097045,-6.635986 -4.942854,-6.46e-4 -5.774244,2.141548 -5.774244,5.774243 0,2.849053 3.6603,1.187759 9.764584,10.472105 3.529781,5.369034 3.483052,4.759966 4.978221,6.147008 0.972698,0.916884 2.578698,2.149936 4.555066,3.352016 0.105492,0.09807 0.250998,0.191636 0.45812,0.280357 0.246158,0.107106 0.413921,0.236157 0.642012,0.347461 0.357141,0.200024 0.708796,0.396177 1.082711,0.587489 3.913053,2.67742 4.164819,10.562468 4.164819,12.699178 0,4.324058 1.366293,5.774558 5.661972,5.774558 h 23.210215 c 4.115335,0 5.774244,-1.72118 5.774244,-5.774558 v -4.15233 c 0,-4.668302 5.774244,-17.909252 5.774244,-31.758985 V 29.24974 c 0,-3.189416 -2.58515,-5.774567 -5.774244,-5.774567 z"
       style="clip-rule:evenodd;display:inline;fill:#fafafa;fill-opacity:0.98843934;fill-rule:evenodd;stroke:none;stroke-width:1.12300003;stroke-miterlimit:4;stroke-dasharray:none;stroke-opacity:1"
       inkscape:connector-curvature="0"
       sodipodi:nodetypes="sscscsccssccsccccccssssssss" />
    <path
       id="path9085"
       d="m 86.822209,23.475173 c -3.189094,0 -5.774244,2.585472 -5.774244,5.774567 v 20.210177 c 0,-3.189094 -2.585472,-5.774244 -5.774244,-5.774244 -3.189416,0 -5.774243,2.58515 -5.774243,5.774244 0,-3.189094 -2.585796,-5.774244 -5.774567,-5.774244 -3.188771,0 -5.774244,2.58515 -5.774244,5.774244 V 26.362295 c -3.23e-4,-3.18877 -2.585795,-5.774244 -5.774889,-5.774244 -3.188772,0 -5.774244,2.585474 -5.774244,5.774244 v 40.420676 c 0,0 -7.372687,-6.635986 -14.097045,-6.635986 -4.942854,-6.46e-4 -5.774244,2.141548 -5.774244,5.774243 0,2.849053 3.6603,1.187759 9.764584,10.472105 3.529781,5.369034 3.483052,4.759966 4.978221,6.147008 0.972698,0.916884 2.578698,2.149936 4.555066,3.352016 0.105492,0.09807 0.250998,0.191636 0.45812,0.280357 0.246158,0.107106 0.413921,0.236157 0.642012,0.347461 0.357141,0.200024 0.708796,0.396177 1.082711,0.587489 3.913053,2.67742 4.164819,10.562468 4.164819,12.699178 0,4.324058 1.366293,5.774558 5.661972,5.774558 h 23.210215 c 4.115335,0 5.774244,-1.72118 5.774244,-5.774558 v -4.15233 c 0,-4.668302 5.774244,-17.909252 5.774244,-31.758985 V 29.24974 c 0,-3.189416 -2.58515,-5.774567 -5.774244,-5.774567 z"
       style="clip-rule:evenodd;display:inline;fill:none;fill-opacity:0.98843934;fill-rule:evenodd;stroke:url(#linearGradient9097);stroke-width:2;stroke-linecap:round;stroke-miterlimit:4;stroke-dasharray:none;stroke-opacity:1"
       inkscape:connector-curvature="0"
       sodipodi:nodetypes="sscscsccssccsccccccssssssss"
       mask="url(#mask9105)" />
  </g>
</svg>
