<?xml version="1.0" encoding="UTF-8" standalone="no"?>
<!-- Created with Inkscape (http://www.inkscape.org/) -->

<svg
   xmlns:dc="http://purl.org/dc/elements/1.1/"
   xmlns:cc="http://creativecommons.org/ns#"
   xmlns:rdf="http://www.w3.org/1999/02/22-rdf-syntax-ns#"
   xmlns:svg="http://www.w3.org/2000/svg"
   xmlns="http://www.w3.org/2000/svg"
   xmlns:xlink="http://www.w3.org/1999/xlink"
   xmlns:sodipodi="http://sodipodi.sourceforge.net/DTD/sodipodi-0.dtd"
   xmlns:inkscape="http://www.inkscape.org/namespaces/inkscape"
   width="128"
   height="128"
   viewBox="0 0 33.866666 33.866666"
   version="1.1"
   id="svg8"
   inkscape:version="0.92.4 5da689c313, 2019-01-14"
   sodipodi:docname="experimental.svg">
  <defs
     id="defs2">















	

		
		
		
	<mask
   id="mask8136"
   maskUnits="userSpaceOnUse">
  <path
     d="m 196.6137,13.068662 c -30.57554,0 -55.59189,24.883601 -55.59189,55.296896 0,30.413291 25.01635,55.296892 55.59189,55.296892 30.57553,0 55.59189,-24.883601 55.59189,-55.296892 0,-30.413295 -24.7384,-55.296896 -55.59189,-55.296896"
     id="path8138"
     inkscape:connector-curvature="0"
     style="clip-rule:evenodd;display:inline;fill:#ffffff;fill-opacity:1;fill-rule:evenodd;stroke:none;stroke-width:2;stroke-miterlimit:4;stroke-dasharray:none;stroke-opacity:0.68208092"
     sodipodi:nodetypes="csssc" />
</mask>
<mask
   id="mask8136-8"
   maskUnits="userSpaceOnUse">
  <path
     d="m 196.6137,13.068662 c -30.57554,0 -55.59189,24.883601 -55.59189,55.296896 0,30.413291 25.01635,55.296892 55.59189,55.296892 30.57553,0 55.59189,-24.883601 55.59189,-55.296892 0,-30.413295 -24.7384,-55.296896 -55.59189,-55.296896"
     id="path8138-5"
     inkscape:connector-curvature="0"
     style="clip-rule:evenodd;display:inline;fill:#ffffff;fill-opacity:1;fill-rule:evenodd;stroke:none;stroke-width:2;stroke-miterlimit:4;stroke-dasharray:none;stroke-opacity:0.68208092"
     sodipodi:nodetypes="csssc" />
</mask>
<linearGradient
   id="linearGradient8166"
   inkscape:collect="always">
  <stop
     id="stop8162"
     offset="0"
     style="stop-color:#ffffff;stop-opacity:0.5780347" />
  <stop
     style="stop-color:#ffffff;stop-opacity:0"
     offset="0.51297855"
     id="stop8170" />
  <stop
     id="stop8164"
     offset="1"
     style="stop-color:#ffffff;stop-opacity:0.27745664" />
</linearGradient>
<linearGradient
   id="linearGradient864"
   inkscape:collect="always">
  <stop
     id="stop860"
     offset="0"
     style="stop-color:#93d049;stop-opacity:1" />
  <stop
     id="stop862"
     offset="1"
     style="stop-color:#c6f27b;stop-opacity:1" />
</linearGradient>
<linearGradient
   gradientTransform="matrix(0.86862325,0,0,0.86401394,8.4080818,8.703108)"
   gradientUnits="userSpaceOnUse"
   y2="1.3662444"
   x2="68.562729"
   y1="125.21066"
   x1="64.961449"
   id="linearGradient866"
   xlink:href="#linearGradient864"
   inkscape:collect="always" />
<mask
   id="mask8136-6"
   maskUnits="userSpaceOnUse">
  <path
     d="m 196.6137,13.068662 c -30.57554,0 -55.59189,24.883601 -55.59189,55.296896 0,30.413291 25.01635,55.296892 55.59189,55.296892 30.57553,0 55.59189,-24.883601 55.59189,-55.296892 0,-30.413295 -24.7384,-55.296896 -55.59189,-55.296896"
     id="path8138-2"
     inkscape:connector-curvature="0"
     style="clip-rule:evenodd;display:inline;fill:#ffffff;fill-opacity:1;fill-rule:evenodd;stroke:none;stroke-width:2;stroke-miterlimit:4;stroke-dasharray:none;stroke-opacity:0.68208092"
     sodipodi:nodetypes="csssc" />
</mask>
<linearGradient
   gradientUnits="userSpaceOnUse"
   y2="123.20827"
   x2="193.56892"
   y1="13.71459"
   x1="198.89143"
   id="linearGradient8168"
   xlink:href="#linearGradient8166"
   inkscape:collect="always" />

	

		
		
		
	</defs>
  <sodipodi:namedview
     id="base"
     pagecolor="#ffffff"
     bordercolor="#666666"
     borderopacity="1.0"
     inkscape:pageopacity="0.0"
     inkscape:pageshadow="2"
     inkscape:zoom="5.6"
     inkscape:cx="47.376418"
     inkscape:cy="65.501468"
     inkscape:document-units="mm"
     inkscape:current-layer="layer2"
     showgrid="false"
     inkscape:window-width="2560"
     inkscape:window-height="1386"
     inkscape:window-x="0"
     inkscape:window-y="28"
     inkscape:window-maximized="1"
     inkscape:snap-page="true"
     inkscape:snap-grids="false"
     units="px"
     inkscape:object-paths="true"
     inkscape:snap-nodes="false" />
  <metadata
     id="metadata5">
    <rdf:RDF>
      <cc:Work
         rdf:about="">
        <dc:format>image/svg+xml</dc:format>
        <dc:type
           rdf:resource="http://purl.org/dc/dcmitype/StillImage" />
        <dc:title></dc:title>
      </cc:Work>
    </rdf:RDF>
  </metadata>
  <g
     inkscape:label="Layer 1"
     inkscape:groupmode="layer"
     id="layer1"
     transform="translate(0,-263.13334)"
     style="display:inline">
    <rect
       style="opacity:0.15;fill:#000000;fill-opacity:1;fill-rule:evenodd;stroke:none;stroke-width:0.21001302;stroke-linecap:round;stroke-linejoin:round;stroke-miterlimit:4;stroke-dasharray:none;stroke-dashoffset:0;stroke-opacity:1;paint-order:markers fill stroke"
       id="rect1490"
       width="33.866665"
       height="33.866665"
       x="0"
       y="263.13333" />
  </g>
  <g
     inkscape:groupmode="layer"
     id="layer2"
     inkscape:label="Layer 2"
     transform="translate(0,-94.13334)">
    <g
       id="g1665"
       transform="matrix(0.26458333,0,0,0.26458333,41.651207,94.13334)">
      <g
         inkscape:label="Layer 5"
         id="layer5" />
      <g
         style="display:inline"
         inkscape:label="Layer 1"
         id="layer1-5">
        <path
           id="path855"
           d="M 64,8.703125 C 33.424461,8.703125 8.4082031,33.586709 8.4082031,64 8.4082031,94.413291 33.424461,119.29687 64,119.29688 94.575538,119.29688 119.5918,94.413291 119.5918,64 119.5918,33.586709 94.853497,8.703125 64,8.703125 Z"
           style="clip-rule:evenodd;fill:url(#linearGradient866);fill-opacity:1;fill-rule:evenodd;stroke-width:0.86631554"
           inkscape:connector-curvature="0" />
        <path
           transform="translate(-132.61393,-4.365557)"
           mask="url(#mask8136-6)"
           sodipodi:nodetypes="csssc"
           style="clip-rule:evenodd;display:inline;fill:none;fill-opacity:1;fill-rule:evenodd;stroke:url(#linearGradient8168);stroke-width:2;stroke-miterlimit:4;stroke-dasharray:none;stroke-opacity:0.94219654"
           inkscape:connector-curvature="0"
           id="path8119"
           d="m 196.6137,13.068662 c -30.57554,0 -55.59189,24.883601 -55.59189,55.296896 0,30.413291 25.01635,55.296892 55.59189,55.296892 30.57553,0 55.59189,-24.883601 55.59189,-55.296892 0,-30.413295 -24.7384,-55.296896 -55.59189,-55.296896" />
        <a
           style="stroke:#93d538;stroke-width:1;stroke-miterlimit:4;stroke-dasharray:none;stroke-opacity:1"
           id="a858">
          <path
             sodipodi:nodetypes="csssc"
             d="M 63.999767,8.703108 C 33.424228,8.703108 8.4078785,33.586709 8.4078785,64 c 0,30.413291 25.0163495,55.29689 55.5918885,55.29689 30.575538,0 55.591893,-24.883599 55.591893,-55.29689 0,-30.413291 -24.738396,-55.296892 -55.591893,-55.296892"
             id="path851"
             inkscape:connector-curvature="0"
             style="clip-rule:evenodd;fill:none;fill-opacity:1;fill-rule:evenodd;stroke:#93d538;stroke-width:1;stroke-miterlimit:4;stroke-dasharray:none;stroke-opacity:1" />
        </a>
      </g>
      <g
         style="display:inline"
         inkscape:label="Layer 3"
         id="layer3-8" />
      <g
         inkscape:label="Layer 4"
         id="layer4" />
      <g
         style="display:inline"
         inkscape:label="Layer 2"
         id="layer2-6">
        <rect
           style="clip-rule:evenodd;fill:none;fill-rule:evenodd"
           y="0"
           x="0"
           id="rect2"
           width="128"
           height="128" />
        <path
           inkscape:connector-curvature="0"
           id="rect858"
           d="m 54.347934,38.484375 c -9.692207,0.01458 -18.892299,1.219169 -26.292969,3.396484 -2.501635,0.829454 -4.167862,3.59453 -3.333984,6.359375 0.833879,2.48836 3.612984,4.147814 6.392578,3.31836 16.955526,-5.253204 46.69692,-4.147034 64.486328,6.359375 2.501635,1.382422 5.836763,0.552578 7.226563,-1.382813 1.3898,-2.48836 0.55633,-5.807031 -1.94531,-7.189453 C 88.025513,41.74238 70.501612,38.460075 54.347934,38.484375 Z M 53.4827,57.300781 c -7.583701,0.002 -15.116753,1.014555 -22.091797,3.105469 -2.223676,0.552969 -3.335215,3.040077 -2.779297,5.251953 0.555919,2.211876 3.057574,3.318593 5.28125,2.765625 17.511445,-5.52969 40.304644,-2.764612 55.314453,6.359375 1.945716,1.382422 4.446136,0.552579 5.835938,-1.382812 C 96.433044,71.465 95.599678,68.700547 93.931918,67.871094 82.622444,60.976262 67.960673,57.296883 53.4827,57.300781 Z m 2.111328,18.048828 c -7.081451,-0.118262 -14.613312,0.712021 -22.535157,2.47461 -1.667755,0.552969 -3.057872,2.211093 -2.501953,4.146484 0.555918,1.658907 2.224206,3.04125 4.169922,2.488281 19.457161,-4.423751 35.857781,-2.764142 48.921875,5.253907 1.667756,1.105938 3.612772,0.553438 4.72461,-1.105469 C 89.207203,86.948515 88.928416,84.735704 86.9827,83.90625 77.949018,78.376561 67.396446,75.546713 55.594028,75.349609 Z"
           style="opacity:1;fill:#3a1f1a;fill-opacity:1;fill-rule:evenodd;stroke:none;stroke-width:0.87765068;stroke-linecap:round;stroke-linejoin:round;stroke-miterlimit:4;stroke-dasharray:none;stroke-opacity:1;paint-order:fill markers stroke" />
        <path
           id="path840"
           d="m 54.347656,38.484375 c -9.692207,0.01458 -18.892299,1.219169 -26.292968,3.396484 -2.501636,0.829454 -4.167863,3.59453 -3.333985,6.359375 0.31392,0.936762 0.904495,1.753936 1.666016,2.367188 -0.0531,-0.123722 -0.123001,-0.238827 -0.166016,-0.367188 -0.833878,-2.764845 0.832349,-5.529921 3.333985,-6.359375 7.400669,-2.177315 16.600761,-3.381904 26.292968,-3.396484 16.153678,-0.0243 33.677578,3.258005 46.533204,10.861328 0.2381,0.131574 0.45667,0.284951 0.66406,0.449219 -0.42941,-1.008809 -1.15286,-1.890422 -2.16406,-2.449219 C 88.025232,41.74238 70.501334,38.460075 54.347656,38.484375 Z m -0.865234,18.816406 c -7.583701,0.002 -15.116753,1.014555 -22.091797,3.105469 -2.223676,0.552969 -3.335215,3.040077 -2.779297,5.251953 0.230654,0.917719 0.8071,1.631292 1.548828,2.128906 -0.0132,-0.04498 -0.03728,-0.08297 -0.04883,-0.128906 -0.555918,-2.211876 0.555621,-4.698984 2.779297,-5.251953 6.975044,-2.090914 14.508096,-3.103469 22.091797,-3.105469 14.477973,-0.0039 29.139745,3.675481 40.449219,10.570313 0.03951,0.01965 0.07277,0.05243 0.111328,0.07422 -0.283296,-0.915386 -0.854293,-1.697713 -1.611326,-2.07422 C 82.622167,60.976262 67.960395,57.296883 53.482422,57.300781 Z m -0.564453,18.048828 c -6.293971,0.103793 -12.927761,0.932344 -19.859375,2.47461 -1.667755,0.552969 -3.057872,2.211093 -2.501953,4.146484 0.27136,0.809764 0.811281,1.550113 1.515625,2.035156 -0.0042,-0.01208 -0.01157,-0.02305 -0.01563,-0.03516 -0.555919,-1.935391 0.834198,-3.593515 2.501953,-4.146484 7.921845,-1.762589 15.453705,-2.592872 22.535156,-2.47461 11.802418,0.197104 22.35499,3.026952 31.388672,8.556641 0.09413,0.04013 0.165564,0.09815 0.251953,0.144531 C 88.545962,85.144104 87.993863,84.337425 86.982422,83.90625 77.94874,78.376561 67.396168,75.546713 55.59375,75.349609 c -0.885181,-0.01478 -1.776643,-0.01483 -2.675781,0 z"
           style="opacity:1;fill:#715344;fill-opacity:1;fill-rule:evenodd;stroke:none;stroke-width:0.87765068;stroke-linecap:round;stroke-linejoin:round;stroke-miterlimit:4;stroke-dasharray:none;stroke-opacity:1;paint-order:fill markers stroke"
           inkscape:connector-curvature="0" />
      </g>
    </g>
    <g
       id="g1861"
       transform="matrix(0.07775298,0,0,0.07775298,-44.565323,99.950764)">
</g>
    <g
       id="g1863"
       transform="matrix(0.07775298,0,0,0.07775298,-44.565323,99.950764)">
</g>
    <g
       id="g1865"
       transform="matrix(0.07775298,0,0,0.07775298,-44.565323,99.950764)">
</g>
    <g
       id="g1867"
       transform="matrix(0.07775298,0,0,0.07775298,-44.565323,99.950764)">
</g>
    <g
       id="g1869"
       transform="matrix(0.07775298,0,0,0.07775298,-44.565323,99.950764)">
</g>
    <g
       id="g1871"
       transform="matrix(0.07775298,0,0,0.07775298,-44.565323,99.950764)">
</g>
    <g
       id="g1873"
       transform="matrix(0.07775298,0,0,0.07775298,-44.565323,99.950764)">
</g>
    <g
       id="g1875"
       transform="matrix(0.07775298,0,0,0.07775298,-44.565323,99.950764)">
</g>
    <g
       id="g1877"
       transform="matrix(0.07775298,0,0,0.07775298,-44.565323,99.950764)">
</g>
    <g
       id="g1879"
       transform="matrix(0.07775298,0,0,0.07775298,-44.565323,99.950764)">
</g>
    <g
       id="g1881"
       transform="matrix(0.07775298,0,0,0.07775298,-44.565323,99.950764)">
</g>
    <g
       id="g1883"
       transform="matrix(0.07775298,0,0,0.07775298,-44.565323,99.950764)">
</g>
    <g
       id="g1885"
       transform="matrix(0.07775298,0,0,0.07775298,-44.565323,99.950764)">
</g>
    <g
       id="g1887"
       transform="matrix(0.07775298,0,0,0.07775298,-44.565323,99.950764)">
</g>
    <g
       id="g1889"
       transform="matrix(0.07775298,0,0,0.07775298,-44.565323,99.950764)">
</g>
    <g
       id="g1999"
       transform="matrix(0.07349598,0,0,0.07349598,5.419777,104.32333)"
       inkscape:transform-center-x="2.6167943"
       inkscape:transform-center-y="-10.084228">
      <g
         id="Let_x27_s_Rock">
	<path
   id="path1942"
   d="m 228.205,8.949 c -9.885,0 -17.898,8.014 -17.898,17.899 v 62.644 c 0,-9.885 -8.014,-17.898 -17.898,-17.898 -9.886,0 -17.898,8.013 -17.898,17.898 0,-9.885 -8.015,-17.898 -17.899,-17.898 -9.884,0 -17.898,8.013 -17.898,17.898 V 17.898 C 138.713,8.014 130.699,0 120.814,0 110.93,0 102.916,8.014 102.916,17.898 v 125.289 c 0,0 -22.852573,-20.56908 -43.695573,-20.56908 -15.321,-0.002 -17.898,6.638 -17.898,17.898 0,8.831 12.244,12.067 31.165,40.845 10.941,16.642 9.949107,21.31877 14.583573,25.61808 3.015,2.842 7.993,6.664 14.119,10.39 0.327,0.304 0.778,0.594 1.42,0.869 0.763,0.332 1.283,0.732 1.99,1.077 1.107,0.62 2.197,1.228 3.356,1.821 12.129,8.299 12.858,31.766 12.858,38.389 0,13.403 4.235,17.899 17.55,17.899 h 71.943 c 12.756,0 17.898,-5.335 17.898,-17.899 v -26.847 c 0,-14.47 17.898,-55.512 17.898,-98.441 V 26.848 c 0,-9.886 -8.013,-17.899 -17.898,-17.899 z"
   style="clip-rule:evenodd;fill-rule:evenodd"
   inkscape:connector-curvature="0"
   sodipodi:nodetypes="sscscsccssccsccccccssssssss" />

</g>
      <g
         id="g1945">
</g>
      <g
         id="g1947">
</g>
      <g
         id="g1949">
</g>
      <g
         id="g1951">
</g>
      <g
         id="g1953">
</g>
      <g
         id="g1955">
</g>
      <g
         id="g1957">
</g>
      <g
         id="g1959">
</g>
      <g
         id="g1961">
</g>
      <g
         id="g1963">
</g>
      <g
         id="g1965">
</g>
      <g
         id="g1967">
</g>
      <g
         id="g1969">
</g>
      <g
         id="g1971">
</g>
      <g
         id="g1973">
</g>
    </g>
    <path
       inkscape:connector-curvature="0"
       d="m 4.9379805,121.68425 h 2.4519397 v -12.26967 c 0.00672,-0.0587 0.01743,-0.1175 0.01743,-0.17778 0,-5.29343 4.2725978,-9.599428 9.5236198,-9.599428 5.250392,0 9.522989,4.305998 9.522989,9.599428 0,0.081 0.01187,0.15941 0.02394,0.23763 v 12.20982 h 2.452255 c 1.706729,0 3.091516,-1.43225 3.091516,-3.19936 v -6.39849 c 0,-1.45724 -0.943877,-2.68495 -2.232481,-3.07126 -0.11855,-7.03219 -5.839043,-12.718458 -12.857695,-12.718458 -7.0205442,0 -12.7418769,5.686778 -12.859271,12.721188 -1.2868195,0.38684 -2.227232,1.61349 -2.227232,3.06958 v 6.39744 c 0,1.76606 1.3846829,3.19936 3.092987,3.19936 z"
       id="path2003"
       style="stroke-width:0.10500363" />
    <g
       id="g2011"
       transform="matrix(0.10362184,0,0,0.10362184,2.0435481,93.93369)">
</g>
    <g
       id="g2013"
       transform="matrix(0.10362184,0,0,0.10362184,2.0435481,93.93369)">
</g>
    <g
       id="g2015"
       transform="matrix(0.10362184,0,0,0.10362184,2.0435481,93.93369)">
</g>
    <g
       id="g2017"
       transform="matrix(0.10362184,0,0,0.10362184,2.0435481,93.93369)">
</g>
    <g
       id="g2019"
       transform="matrix(0.10362184,0,0,0.10362184,2.0435481,93.93369)">
</g>
    <g
       id="g2021"
       transform="matrix(0.10362184,0,0,0.10362184,2.0435481,93.93369)">
</g>
    <g
       id="g2023"
       transform="matrix(0.10362184,0,0,0.10362184,2.0435481,93.93369)">
</g>
    <g
       id="g2025"
       transform="matrix(0.10362184,0,0,0.10362184,2.0435481,93.93369)">
</g>
    <g
       id="g2027"
       transform="matrix(0.10362184,0,0,0.10362184,2.0435481,93.93369)">
</g>
    <g
       id="g2029"
       transform="matrix(0.10362184,0,0,0.10362184,2.0435481,93.93369)">
</g>
    <g
       id="g2031"
       transform="matrix(0.10362184,0,0,0.10362184,2.0435481,93.93369)">
</g>
    <g
       id="g2033"
       transform="matrix(0.10362184,0,0,0.10362184,2.0435481,93.93369)">
</g>
    <g
       id="g2035"
       transform="matrix(0.10362184,0,0,0.10362184,2.0435481,93.93369)">
</g>
    <g
       id="g2037"
       transform="matrix(0.10362184,0,0,0.10362184,2.0435481,93.93369)">
</g>
    <g
       id="g2039"
       transform="matrix(0.10362184,0,0,0.10362184,2.0435481,93.93369)">
</g>
  </g>
  <g
     inkscape:groupmode="layer"
     id="layer6"
     inkscape:label="Layer 4"
     style="display:none" />
  <g
     inkscape:groupmode="layer"
     id="layer3"
     inkscape:label="Layer 3"
     transform="translate(0,-94.13334)"
     style="display:none">
    <g
       id="g1816"
       transform="matrix(0.05758961,0,0,0.05758961,6.8370253,95.604129)">
      <path
         id="path1761"
         d="m 328.712,264.539 c 12.928,-21.632 10.572,-35.327 12.236,-62.399 1.056,-17.376 -2.816,-35.616 -11.2,-52.768 -13.152,-26.944 -35.744,-42.08 -57.568,-56.704004 -16.288,-10.912 -31.68,-21.216 -42.56,-35.936 -7.15458,-17.003628 3.93708,-29.536737 -20.095,-28.464004 -15.2165,0.1205 -15.72842,19.363229 -15.791,27.778996 L 191.912,301.083 c -13.408,-8.128 -29.92,-13.12 -48,-13.12 -44.096,0 -80,28.704 -80,64 0,35.296 35.904,64 80,64 44.096,0 80,-28.704 80,-64 V 165.467 c 75.84716,22.20268 69.96469,55.66868 69.44,118.496 6.592,5.888 16.704,5.184 22.56,-1.44 4.288,-4.864 8.096,-10.56 11.744,-16.512 0.384,-0.448 0.737,-0.928 1.056,-1.472 z"
         inkscape:connector-curvature="0"
         sodipodi:nodetypes="ccccccscssssccccc" />
      <g
         id="g1763">
</g>
      <g
         id="g1765">
</g>
      <g
         id="g1767">
</g>
      <g
         id="g1769">
</g>
      <g
         id="g1771">
</g>
      <g
         id="g1773">
</g>
      <g
         id="g1775">
</g>
      <g
         id="g1777">
</g>
      <g
         id="g1779">
</g>
      <g
         id="g1781">
</g>
      <g
         id="g1783">
</g>
      <g
         id="g1785">
</g>
      <g
         id="g1787">
</g>
      <g
         id="g1789">
</g>
      <g
         id="g1791">
</g>
    </g>
  </g>
</svg>
